G04 #@! TF.GenerationSoftware,KiCad,Pcbnew,5.0.2+dfsg1-1~bpo9+1*
G04 #@! TF.CreationDate,2019-03-08T11:12:02+00:00*
G04 #@! TF.ProjectId,thin_ZBS_screen,7468696e-5f5a-4425-935f-73637265656e,rev?*
G04 #@! TF.SameCoordinates,Original*
G04 #@! TF.FileFunction,Legend,Top*
G04 #@! TF.FilePolarity,Positive*
%FSLAX46Y46*%
G04 Gerber Fmt 4.6, Leading zero omitted, Abs format (unit mm)*
G04 Created by KiCad (PCBNEW 5.0.2+dfsg1-1~bpo9+1) date Fri 08 Mar 2019 11:12:02 GMT*
%MOMM*%
%LPD*%
G01*
G04 APERTURE LIST*
%ADD10C,0.300000*%
%ADD11C,0.150000*%
G04 APERTURE END LIST*
D10*
X155640071Y-47565571D02*
X156497214Y-47565571D01*
X156068642Y-49065571D02*
X156068642Y-47565571D01*
X156997214Y-49065571D02*
X156997214Y-47565571D01*
X157640071Y-49065571D02*
X157640071Y-48279857D01*
X157568642Y-48137000D01*
X157425785Y-48065571D01*
X157211499Y-48065571D01*
X157068642Y-48137000D01*
X156997214Y-48208428D01*
X158354357Y-49065571D02*
X158354357Y-48065571D01*
X158354357Y-47565571D02*
X158282928Y-47637000D01*
X158354357Y-47708428D01*
X158425785Y-47637000D01*
X158354357Y-47565571D01*
X158354357Y-47708428D01*
X159068642Y-48065571D02*
X159068642Y-49065571D01*
X159068642Y-48208428D02*
X159140071Y-48137000D01*
X159282928Y-48065571D01*
X159497214Y-48065571D01*
X159640071Y-48137000D01*
X159711499Y-48279857D01*
X159711499Y-49065571D01*
X160068642Y-49208428D02*
X161211499Y-49208428D01*
X161425785Y-48065571D02*
X162211499Y-48065571D01*
X161425785Y-49065571D01*
X162211499Y-49065571D01*
X163354357Y-48994142D02*
X163211499Y-49065571D01*
X162925785Y-49065571D01*
X162782928Y-48994142D01*
X162711499Y-48851285D01*
X162711499Y-48279857D01*
X162782928Y-48137000D01*
X162925785Y-48065571D01*
X163211499Y-48065571D01*
X163354357Y-48137000D01*
X163425785Y-48279857D01*
X163425785Y-48422714D01*
X162711499Y-48565571D01*
X164068642Y-49065571D02*
X164068642Y-48065571D01*
X164068642Y-48351285D02*
X164140071Y-48208428D01*
X164211499Y-48137000D01*
X164354357Y-48065571D01*
X164497214Y-48065571D01*
X165211499Y-49065571D02*
X165068642Y-48994142D01*
X164997214Y-48922714D01*
X164925785Y-48779857D01*
X164925785Y-48351285D01*
X164997214Y-48208428D01*
X165068642Y-48137000D01*
X165211499Y-48065571D01*
X165425785Y-48065571D01*
X165568642Y-48137000D01*
X165640071Y-48208428D01*
X165711499Y-48351285D01*
X165711499Y-48779857D01*
X165640071Y-48922714D01*
X165568642Y-48994142D01*
X165425785Y-49065571D01*
X165211499Y-49065571D01*
X165997214Y-49208428D02*
X167140071Y-49208428D01*
X167497214Y-49065571D02*
X167497214Y-47565571D01*
X167497214Y-48137000D02*
X167640071Y-48065571D01*
X167925785Y-48065571D01*
X168068642Y-48137000D01*
X168140071Y-48208428D01*
X168211499Y-48351285D01*
X168211499Y-48779857D01*
X168140071Y-48922714D01*
X168068642Y-48994142D01*
X167925785Y-49065571D01*
X167640071Y-49065571D01*
X167497214Y-48994142D01*
X169068642Y-49065571D02*
X168925785Y-48994142D01*
X168854357Y-48922714D01*
X168782928Y-48779857D01*
X168782928Y-48351285D01*
X168854357Y-48208428D01*
X168925785Y-48137000D01*
X169068642Y-48065571D01*
X169282928Y-48065571D01*
X169425785Y-48137000D01*
X169497214Y-48208428D01*
X169568642Y-48351285D01*
X169568642Y-48779857D01*
X169497214Y-48922714D01*
X169425785Y-48994142D01*
X169282928Y-49065571D01*
X169068642Y-49065571D01*
X170425785Y-49065571D02*
X170282928Y-48994142D01*
X170211499Y-48922714D01*
X170140071Y-48779857D01*
X170140071Y-48351285D01*
X170211499Y-48208428D01*
X170282928Y-48137000D01*
X170425785Y-48065571D01*
X170640071Y-48065571D01*
X170782928Y-48137000D01*
X170854357Y-48208428D01*
X170925785Y-48351285D01*
X170925785Y-48779857D01*
X170854357Y-48922714D01*
X170782928Y-48994142D01*
X170640071Y-49065571D01*
X170425785Y-49065571D01*
X171354357Y-48065571D02*
X171925785Y-48065571D01*
X171568642Y-47565571D02*
X171568642Y-48851285D01*
X171640071Y-48994142D01*
X171782928Y-49065571D01*
X171925785Y-49065571D01*
X172068642Y-49208428D02*
X173211499Y-49208428D01*
X173497214Y-48994142D02*
X173640071Y-49065571D01*
X173925785Y-49065571D01*
X174068642Y-48994142D01*
X174140071Y-48851285D01*
X174140071Y-48779857D01*
X174068642Y-48637000D01*
X173925785Y-48565571D01*
X173711499Y-48565571D01*
X173568642Y-48494142D01*
X173497214Y-48351285D01*
X173497214Y-48279857D01*
X173568642Y-48137000D01*
X173711499Y-48065571D01*
X173925785Y-48065571D01*
X174068642Y-48137000D01*
X174640071Y-48065571D02*
X174997214Y-49065571D01*
X175354357Y-48065571D02*
X174997214Y-49065571D01*
X174854357Y-49422714D01*
X174782928Y-49494142D01*
X174640071Y-49565571D01*
X175854357Y-48994142D02*
X175997214Y-49065571D01*
X176282928Y-49065571D01*
X176425785Y-48994142D01*
X176497214Y-48851285D01*
X176497214Y-48779857D01*
X176425785Y-48637000D01*
X176282928Y-48565571D01*
X176068642Y-48565571D01*
X175925785Y-48494142D01*
X175854357Y-48351285D01*
X175854357Y-48279857D01*
X175925785Y-48137000D01*
X176068642Y-48065571D01*
X176282928Y-48065571D01*
X176425785Y-48137000D01*
X176925785Y-48065571D02*
X177497214Y-48065571D01*
X177140071Y-47565571D02*
X177140071Y-48851285D01*
X177211499Y-48994142D01*
X177354357Y-49065571D01*
X177497214Y-49065571D01*
X178568642Y-48994142D02*
X178425785Y-49065571D01*
X178140071Y-49065571D01*
X177997214Y-48994142D01*
X177925785Y-48851285D01*
X177925785Y-48279857D01*
X177997214Y-48137000D01*
X178140071Y-48065571D01*
X178425785Y-48065571D01*
X178568642Y-48137000D01*
X178640071Y-48279857D01*
X178640071Y-48422714D01*
X177925785Y-48565571D01*
X179282928Y-49065571D02*
X179282928Y-48065571D01*
X179282928Y-48208428D02*
X179354357Y-48137000D01*
X179497214Y-48065571D01*
X179711499Y-48065571D01*
X179854357Y-48137000D01*
X179925785Y-48279857D01*
X179925785Y-49065571D01*
X179925785Y-48279857D02*
X179997214Y-48137000D01*
X180140071Y-48065571D01*
X180354357Y-48065571D01*
X180497214Y-48137000D01*
X180568642Y-48279857D01*
X180568642Y-49065571D01*
D11*
G04 #@! TO.C,U1*
X186118500Y-101790500D02*
X101092000Y-101790500D01*
X186118500Y-101790500D02*
X186118500Y-45593000D01*
X101092000Y-101790500D02*
X101092000Y-45593000D01*
X101092000Y-45593000D02*
X186118500Y-45593000D01*
G04 #@! TO.C,U2*
X123444000Y-108458000D02*
X173736000Y-108458000D01*
X116078000Y-108458000D02*
X123444000Y-108458000D01*
X116078000Y-108458000D02*
X116078000Y-78486000D01*
X181102000Y-108458000D02*
X173736000Y-108458000D01*
X181102000Y-108458000D02*
X181102000Y-78486000D01*
X181102000Y-78486000D02*
X116078000Y-78486000D01*
X162687000Y-78486000D02*
X162687000Y-86106000D01*
X162687000Y-86106000D02*
X173863000Y-86106000D01*
X173863000Y-86106000D02*
X173863000Y-78486000D01*
X131318000Y-78486000D02*
X131318000Y-84074000D01*
X131318000Y-84074000D02*
X123571000Y-84074000D01*
X123571000Y-84074000D02*
X123571000Y-78486000D01*
X143256000Y-78486000D02*
X143256000Y-84074000D01*
X143256000Y-84074000D02*
X135255000Y-84074000D01*
X135255000Y-84074000D02*
X135255000Y-78486000D01*
X179832000Y-82042000D02*
G75*
G03X179832000Y-82042000I-2159000J0D01*
G01*
X179832000Y-104902000D02*
G75*
G03X179832000Y-104902000I-2159000J0D01*
G01*
X121666000Y-104902000D02*
G75*
G03X121666000Y-104902000I-2159000J0D01*
G01*
X121666000Y-82042000D02*
G75*
G03X121666000Y-82042000I-2159000J0D01*
G01*
X183578500Y-89852500D02*
X183578500Y-100901500D01*
X183578500Y-100901500D02*
X181102000Y-100901500D01*
X183578500Y-89852500D02*
X181102000Y-89852500D01*
X115125500Y-102108000D02*
X115125500Y-85090000D01*
X115125500Y-85090000D02*
X116078000Y-85090000D01*
X115125500Y-102108000D02*
X116078000Y-102108000D01*
G04 #@! TO.C,BT1*
X184442100Y-92456000D02*
X184442100Y-52451000D01*
X184442100Y-52451000D02*
X134429500Y-52451000D01*
X184442100Y-92456000D02*
X134429500Y-92456000D01*
X134429500Y-52451000D02*
X134429500Y-92456000D01*
G04 #@! TO.C,U5*
X110705900Y-47332900D02*
X113195100Y-47332900D01*
X113195100Y-47332900D02*
X113195100Y-49822100D01*
X113195100Y-49822100D02*
X110705900Y-49822100D01*
X110705900Y-49822100D02*
X110705900Y-47332900D01*
G04 #@! TO.C,U6*
X181889400Y-49822100D02*
X181889400Y-47332900D01*
X184378600Y-49822100D02*
X181889400Y-49822100D01*
X184378600Y-47332900D02*
X184378600Y-49822100D01*
X181889400Y-47332900D02*
X184378600Y-47332900D01*
G04 #@! TO.C,U2*
X166679761Y-80335380D02*
X166679761Y-79335380D01*
X166679761Y-79811571D02*
X167251190Y-79811571D01*
X167251190Y-80335380D02*
X167251190Y-79335380D01*
X167727380Y-80335380D02*
X167727380Y-79335380D01*
X167965476Y-79335380D01*
X168108333Y-79383000D01*
X168203571Y-79478238D01*
X168251190Y-79573476D01*
X168298809Y-79763952D01*
X168298809Y-79906809D01*
X168251190Y-80097285D01*
X168203571Y-80192523D01*
X168108333Y-80287761D01*
X167965476Y-80335380D01*
X167727380Y-80335380D01*
X168727380Y-80335380D02*
X168727380Y-79335380D01*
X169060714Y-80049666D01*
X169394047Y-79335380D01*
X169394047Y-80335380D01*
X169870238Y-80335380D02*
X169870238Y-79335380D01*
X138215809Y-78954380D02*
X138406285Y-78954380D01*
X138501523Y-79002000D01*
X138596761Y-79097238D01*
X138644380Y-79287714D01*
X138644380Y-79621047D01*
X138596761Y-79811523D01*
X138501523Y-79906761D01*
X138406285Y-79954380D01*
X138215809Y-79954380D01*
X138120571Y-79906761D01*
X138025333Y-79811523D01*
X137977714Y-79621047D01*
X137977714Y-79287714D01*
X138025333Y-79097238D01*
X138120571Y-79002000D01*
X138215809Y-78954380D01*
X138930095Y-78954380D02*
X139501523Y-78954380D01*
X139215809Y-79954380D02*
X139215809Y-78954380D01*
X140358666Y-79002000D02*
X140263428Y-78954380D01*
X140120571Y-78954380D01*
X139977714Y-79002000D01*
X139882476Y-79097238D01*
X139834857Y-79192476D01*
X139787238Y-79382952D01*
X139787238Y-79525809D01*
X139834857Y-79716285D01*
X139882476Y-79811523D01*
X139977714Y-79906761D01*
X140120571Y-79954380D01*
X140215809Y-79954380D01*
X140358666Y-79906761D01*
X140406285Y-79859142D01*
X140406285Y-79525809D01*
X140215809Y-79525809D01*
X126047666Y-80081380D02*
X126047666Y-79081380D01*
X126428619Y-79081380D01*
X126523857Y-79129000D01*
X126571476Y-79176619D01*
X126619095Y-79271857D01*
X126619095Y-79414714D01*
X126571476Y-79509952D01*
X126523857Y-79557571D01*
X126428619Y-79605190D01*
X126047666Y-79605190D01*
X126952428Y-79081380D02*
X127190523Y-80081380D01*
X127381000Y-79367095D01*
X127571476Y-80081380D01*
X127809571Y-79081380D01*
X128761952Y-80081380D02*
X128428619Y-79605190D01*
X128190523Y-80081380D02*
X128190523Y-79081380D01*
X128571476Y-79081380D01*
X128666714Y-79129000D01*
X128714333Y-79176619D01*
X128761952Y-79271857D01*
X128761952Y-79414714D01*
X128714333Y-79509952D01*
X128666714Y-79557571D01*
X128571476Y-79605190D01*
X128190523Y-79605190D01*
G04 #@! TD*
M02*
