G04 #@! TF.GenerationSoftware,KiCad,Pcbnew,5.0.2+dfsg1-1~bpo9+1*
G04 #@! TF.CreationDate,2019-03-08T11:12:02+00:00*
G04 #@! TF.ProjectId,thin_ZBS_screen,7468696e-5f5a-4425-935f-73637265656e,rev?*
G04 #@! TF.SameCoordinates,Original*
G04 #@! TF.FileFunction,Soldermask,Top*
G04 #@! TF.FilePolarity,Negative*
%FSLAX46Y46*%
G04 Gerber Fmt 4.6, Leading zero omitted, Abs format (unit mm)*
G04 Created by KiCad (PCBNEW 5.0.2+dfsg1-1~bpo9+1) date Fri 08 Mar 2019 11:12:02 GMT*
%MOMM*%
%LPD*%
G01*
G04 APERTURE LIST*
%ADD10C,0.100000*%
G04 APERTURE END LIST*
D10*
G36*
X124635770Y-105187372D02*
X124751689Y-105210429D01*
X124933678Y-105285811D01*
X125097463Y-105395249D01*
X125236751Y-105534537D01*
X125346189Y-105698322D01*
X125421571Y-105880311D01*
X125460000Y-106073509D01*
X125460000Y-106270491D01*
X125421571Y-106463689D01*
X125346189Y-106645678D01*
X125236751Y-106809463D01*
X125097463Y-106948751D01*
X124933678Y-107058189D01*
X124751689Y-107133571D01*
X124635770Y-107156628D01*
X124558493Y-107172000D01*
X124361507Y-107172000D01*
X124284230Y-107156628D01*
X124168311Y-107133571D01*
X123986322Y-107058189D01*
X123822537Y-106948751D01*
X123683249Y-106809463D01*
X123573811Y-106645678D01*
X123498429Y-106463689D01*
X123460000Y-106270491D01*
X123460000Y-106073509D01*
X123498429Y-105880311D01*
X123573811Y-105698322D01*
X123683249Y-105534537D01*
X123822537Y-105395249D01*
X123986322Y-105285811D01*
X124168311Y-105210429D01*
X124284230Y-105187372D01*
X124361507Y-105172000D01*
X124558493Y-105172000D01*
X124635770Y-105187372D01*
X124635770Y-105187372D01*
G37*
G36*
X155115770Y-105187372D02*
X155231689Y-105210429D01*
X155413678Y-105285811D01*
X155577463Y-105395249D01*
X155716751Y-105534537D01*
X155826189Y-105698322D01*
X155901571Y-105880311D01*
X155940000Y-106073509D01*
X155940000Y-106270491D01*
X155901571Y-106463689D01*
X155826189Y-106645678D01*
X155716751Y-106809463D01*
X155577463Y-106948751D01*
X155413678Y-107058189D01*
X155231689Y-107133571D01*
X155115770Y-107156628D01*
X155038493Y-107172000D01*
X154841507Y-107172000D01*
X154764230Y-107156628D01*
X154648311Y-107133571D01*
X154466322Y-107058189D01*
X154302537Y-106948751D01*
X154163249Y-106809463D01*
X154053811Y-106645678D01*
X153978429Y-106463689D01*
X153940000Y-106270491D01*
X153940000Y-106073509D01*
X153978429Y-105880311D01*
X154053811Y-105698322D01*
X154163249Y-105534537D01*
X154302537Y-105395249D01*
X154466322Y-105285811D01*
X154648311Y-105210429D01*
X154764230Y-105187372D01*
X154841507Y-105172000D01*
X155038493Y-105172000D01*
X155115770Y-105187372D01*
X155115770Y-105187372D01*
G37*
G36*
X132255770Y-105187372D02*
X132371689Y-105210429D01*
X132553678Y-105285811D01*
X132717463Y-105395249D01*
X132856751Y-105534537D01*
X132966189Y-105698322D01*
X133041571Y-105880311D01*
X133080000Y-106073509D01*
X133080000Y-106270491D01*
X133041571Y-106463689D01*
X132966189Y-106645678D01*
X132856751Y-106809463D01*
X132717463Y-106948751D01*
X132553678Y-107058189D01*
X132371689Y-107133571D01*
X132255770Y-107156628D01*
X132178493Y-107172000D01*
X131981507Y-107172000D01*
X131904230Y-107156628D01*
X131788311Y-107133571D01*
X131606322Y-107058189D01*
X131442537Y-106948751D01*
X131303249Y-106809463D01*
X131193811Y-106645678D01*
X131118429Y-106463689D01*
X131080000Y-106270491D01*
X131080000Y-106073509D01*
X131118429Y-105880311D01*
X131193811Y-105698322D01*
X131303249Y-105534537D01*
X131442537Y-105395249D01*
X131606322Y-105285811D01*
X131788311Y-105210429D01*
X131904230Y-105187372D01*
X131981507Y-105172000D01*
X132178493Y-105172000D01*
X132255770Y-105187372D01*
X132255770Y-105187372D01*
G37*
G36*
X134795770Y-105187372D02*
X134911689Y-105210429D01*
X135093678Y-105285811D01*
X135257463Y-105395249D01*
X135396751Y-105534537D01*
X135506189Y-105698322D01*
X135581571Y-105880311D01*
X135620000Y-106073509D01*
X135620000Y-106270491D01*
X135581571Y-106463689D01*
X135506189Y-106645678D01*
X135396751Y-106809463D01*
X135257463Y-106948751D01*
X135093678Y-107058189D01*
X134911689Y-107133571D01*
X134795770Y-107156628D01*
X134718493Y-107172000D01*
X134521507Y-107172000D01*
X134444230Y-107156628D01*
X134328311Y-107133571D01*
X134146322Y-107058189D01*
X133982537Y-106948751D01*
X133843249Y-106809463D01*
X133733811Y-106645678D01*
X133658429Y-106463689D01*
X133620000Y-106270491D01*
X133620000Y-106073509D01*
X133658429Y-105880311D01*
X133733811Y-105698322D01*
X133843249Y-105534537D01*
X133982537Y-105395249D01*
X134146322Y-105285811D01*
X134328311Y-105210429D01*
X134444230Y-105187372D01*
X134521507Y-105172000D01*
X134718493Y-105172000D01*
X134795770Y-105187372D01*
X134795770Y-105187372D01*
G37*
G36*
X137335770Y-105187372D02*
X137451689Y-105210429D01*
X137633678Y-105285811D01*
X137797463Y-105395249D01*
X137936751Y-105534537D01*
X138046189Y-105698322D01*
X138121571Y-105880311D01*
X138160000Y-106073509D01*
X138160000Y-106270491D01*
X138121571Y-106463689D01*
X138046189Y-106645678D01*
X137936751Y-106809463D01*
X137797463Y-106948751D01*
X137633678Y-107058189D01*
X137451689Y-107133571D01*
X137335770Y-107156628D01*
X137258493Y-107172000D01*
X137061507Y-107172000D01*
X136984230Y-107156628D01*
X136868311Y-107133571D01*
X136686322Y-107058189D01*
X136522537Y-106948751D01*
X136383249Y-106809463D01*
X136273811Y-106645678D01*
X136198429Y-106463689D01*
X136160000Y-106270491D01*
X136160000Y-106073509D01*
X136198429Y-105880311D01*
X136273811Y-105698322D01*
X136383249Y-105534537D01*
X136522537Y-105395249D01*
X136686322Y-105285811D01*
X136868311Y-105210429D01*
X136984230Y-105187372D01*
X137061507Y-105172000D01*
X137258493Y-105172000D01*
X137335770Y-105187372D01*
X137335770Y-105187372D01*
G37*
G36*
X139875770Y-105187372D02*
X139991689Y-105210429D01*
X140173678Y-105285811D01*
X140337463Y-105395249D01*
X140476751Y-105534537D01*
X140586189Y-105698322D01*
X140661571Y-105880311D01*
X140700000Y-106073509D01*
X140700000Y-106270491D01*
X140661571Y-106463689D01*
X140586189Y-106645678D01*
X140476751Y-106809463D01*
X140337463Y-106948751D01*
X140173678Y-107058189D01*
X139991689Y-107133571D01*
X139875770Y-107156628D01*
X139798493Y-107172000D01*
X139601507Y-107172000D01*
X139524230Y-107156628D01*
X139408311Y-107133571D01*
X139226322Y-107058189D01*
X139062537Y-106948751D01*
X138923249Y-106809463D01*
X138813811Y-106645678D01*
X138738429Y-106463689D01*
X138700000Y-106270491D01*
X138700000Y-106073509D01*
X138738429Y-105880311D01*
X138813811Y-105698322D01*
X138923249Y-105534537D01*
X139062537Y-105395249D01*
X139226322Y-105285811D01*
X139408311Y-105210429D01*
X139524230Y-105187372D01*
X139601507Y-105172000D01*
X139798493Y-105172000D01*
X139875770Y-105187372D01*
X139875770Y-105187372D01*
G37*
G36*
X142415770Y-105187372D02*
X142531689Y-105210429D01*
X142713678Y-105285811D01*
X142877463Y-105395249D01*
X143016751Y-105534537D01*
X143126189Y-105698322D01*
X143201571Y-105880311D01*
X143240000Y-106073509D01*
X143240000Y-106270491D01*
X143201571Y-106463689D01*
X143126189Y-106645678D01*
X143016751Y-106809463D01*
X142877463Y-106948751D01*
X142713678Y-107058189D01*
X142531689Y-107133571D01*
X142415770Y-107156628D01*
X142338493Y-107172000D01*
X142141507Y-107172000D01*
X142064230Y-107156628D01*
X141948311Y-107133571D01*
X141766322Y-107058189D01*
X141602537Y-106948751D01*
X141463249Y-106809463D01*
X141353811Y-106645678D01*
X141278429Y-106463689D01*
X141240000Y-106270491D01*
X141240000Y-106073509D01*
X141278429Y-105880311D01*
X141353811Y-105698322D01*
X141463249Y-105534537D01*
X141602537Y-105395249D01*
X141766322Y-105285811D01*
X141948311Y-105210429D01*
X142064230Y-105187372D01*
X142141507Y-105172000D01*
X142338493Y-105172000D01*
X142415770Y-105187372D01*
X142415770Y-105187372D01*
G37*
G36*
X144955770Y-105187372D02*
X145071689Y-105210429D01*
X145253678Y-105285811D01*
X145417463Y-105395249D01*
X145556751Y-105534537D01*
X145666189Y-105698322D01*
X145741571Y-105880311D01*
X145780000Y-106073509D01*
X145780000Y-106270491D01*
X145741571Y-106463689D01*
X145666189Y-106645678D01*
X145556751Y-106809463D01*
X145417463Y-106948751D01*
X145253678Y-107058189D01*
X145071689Y-107133571D01*
X144955770Y-107156628D01*
X144878493Y-107172000D01*
X144681507Y-107172000D01*
X144604230Y-107156628D01*
X144488311Y-107133571D01*
X144306322Y-107058189D01*
X144142537Y-106948751D01*
X144003249Y-106809463D01*
X143893811Y-106645678D01*
X143818429Y-106463689D01*
X143780000Y-106270491D01*
X143780000Y-106073509D01*
X143818429Y-105880311D01*
X143893811Y-105698322D01*
X144003249Y-105534537D01*
X144142537Y-105395249D01*
X144306322Y-105285811D01*
X144488311Y-105210429D01*
X144604230Y-105187372D01*
X144681507Y-105172000D01*
X144878493Y-105172000D01*
X144955770Y-105187372D01*
X144955770Y-105187372D01*
G37*
G36*
X147495770Y-105187372D02*
X147611689Y-105210429D01*
X147793678Y-105285811D01*
X147957463Y-105395249D01*
X148096751Y-105534537D01*
X148206189Y-105698322D01*
X148281571Y-105880311D01*
X148320000Y-106073509D01*
X148320000Y-106270491D01*
X148281571Y-106463689D01*
X148206189Y-106645678D01*
X148096751Y-106809463D01*
X147957463Y-106948751D01*
X147793678Y-107058189D01*
X147611689Y-107133571D01*
X147495770Y-107156628D01*
X147418493Y-107172000D01*
X147221507Y-107172000D01*
X147144230Y-107156628D01*
X147028311Y-107133571D01*
X146846322Y-107058189D01*
X146682537Y-106948751D01*
X146543249Y-106809463D01*
X146433811Y-106645678D01*
X146358429Y-106463689D01*
X146320000Y-106270491D01*
X146320000Y-106073509D01*
X146358429Y-105880311D01*
X146433811Y-105698322D01*
X146543249Y-105534537D01*
X146682537Y-105395249D01*
X146846322Y-105285811D01*
X147028311Y-105210429D01*
X147144230Y-105187372D01*
X147221507Y-105172000D01*
X147418493Y-105172000D01*
X147495770Y-105187372D01*
X147495770Y-105187372D01*
G37*
G36*
X150035770Y-105187372D02*
X150151689Y-105210429D01*
X150333678Y-105285811D01*
X150497463Y-105395249D01*
X150636751Y-105534537D01*
X150746189Y-105698322D01*
X150821571Y-105880311D01*
X150860000Y-106073509D01*
X150860000Y-106270491D01*
X150821571Y-106463689D01*
X150746189Y-106645678D01*
X150636751Y-106809463D01*
X150497463Y-106948751D01*
X150333678Y-107058189D01*
X150151689Y-107133571D01*
X150035770Y-107156628D01*
X149958493Y-107172000D01*
X149761507Y-107172000D01*
X149684230Y-107156628D01*
X149568311Y-107133571D01*
X149386322Y-107058189D01*
X149222537Y-106948751D01*
X149083249Y-106809463D01*
X148973811Y-106645678D01*
X148898429Y-106463689D01*
X148860000Y-106270491D01*
X148860000Y-106073509D01*
X148898429Y-105880311D01*
X148973811Y-105698322D01*
X149083249Y-105534537D01*
X149222537Y-105395249D01*
X149386322Y-105285811D01*
X149568311Y-105210429D01*
X149684230Y-105187372D01*
X149761507Y-105172000D01*
X149958493Y-105172000D01*
X150035770Y-105187372D01*
X150035770Y-105187372D01*
G37*
G36*
X152575770Y-105187372D02*
X152691689Y-105210429D01*
X152873678Y-105285811D01*
X153037463Y-105395249D01*
X153176751Y-105534537D01*
X153286189Y-105698322D01*
X153361571Y-105880311D01*
X153400000Y-106073509D01*
X153400000Y-106270491D01*
X153361571Y-106463689D01*
X153286189Y-106645678D01*
X153176751Y-106809463D01*
X153037463Y-106948751D01*
X152873678Y-107058189D01*
X152691689Y-107133571D01*
X152575770Y-107156628D01*
X152498493Y-107172000D01*
X152301507Y-107172000D01*
X152224230Y-107156628D01*
X152108311Y-107133571D01*
X151926322Y-107058189D01*
X151762537Y-106948751D01*
X151623249Y-106809463D01*
X151513811Y-106645678D01*
X151438429Y-106463689D01*
X151400000Y-106270491D01*
X151400000Y-106073509D01*
X151438429Y-105880311D01*
X151513811Y-105698322D01*
X151623249Y-105534537D01*
X151762537Y-105395249D01*
X151926322Y-105285811D01*
X152108311Y-105210429D01*
X152224230Y-105187372D01*
X152301507Y-105172000D01*
X152498493Y-105172000D01*
X152575770Y-105187372D01*
X152575770Y-105187372D01*
G37*
G36*
X160195770Y-105187372D02*
X160311689Y-105210429D01*
X160493678Y-105285811D01*
X160657463Y-105395249D01*
X160796751Y-105534537D01*
X160906189Y-105698322D01*
X160981571Y-105880311D01*
X161020000Y-106073509D01*
X161020000Y-106270491D01*
X160981571Y-106463689D01*
X160906189Y-106645678D01*
X160796751Y-106809463D01*
X160657463Y-106948751D01*
X160493678Y-107058189D01*
X160311689Y-107133571D01*
X160195770Y-107156628D01*
X160118493Y-107172000D01*
X159921507Y-107172000D01*
X159844230Y-107156628D01*
X159728311Y-107133571D01*
X159546322Y-107058189D01*
X159382537Y-106948751D01*
X159243249Y-106809463D01*
X159133811Y-106645678D01*
X159058429Y-106463689D01*
X159020000Y-106270491D01*
X159020000Y-106073509D01*
X159058429Y-105880311D01*
X159133811Y-105698322D01*
X159243249Y-105534537D01*
X159382537Y-105395249D01*
X159546322Y-105285811D01*
X159728311Y-105210429D01*
X159844230Y-105187372D01*
X159921507Y-105172000D01*
X160118493Y-105172000D01*
X160195770Y-105187372D01*
X160195770Y-105187372D01*
G37*
G36*
X162735770Y-105187372D02*
X162851689Y-105210429D01*
X163033678Y-105285811D01*
X163197463Y-105395249D01*
X163336751Y-105534537D01*
X163446189Y-105698322D01*
X163521571Y-105880311D01*
X163560000Y-106073509D01*
X163560000Y-106270491D01*
X163521571Y-106463689D01*
X163446189Y-106645678D01*
X163336751Y-106809463D01*
X163197463Y-106948751D01*
X163033678Y-107058189D01*
X162851689Y-107133571D01*
X162735770Y-107156628D01*
X162658493Y-107172000D01*
X162461507Y-107172000D01*
X162384230Y-107156628D01*
X162268311Y-107133571D01*
X162086322Y-107058189D01*
X161922537Y-106948751D01*
X161783249Y-106809463D01*
X161673811Y-106645678D01*
X161598429Y-106463689D01*
X161560000Y-106270491D01*
X161560000Y-106073509D01*
X161598429Y-105880311D01*
X161673811Y-105698322D01*
X161783249Y-105534537D01*
X161922537Y-105395249D01*
X162086322Y-105285811D01*
X162268311Y-105210429D01*
X162384230Y-105187372D01*
X162461507Y-105172000D01*
X162658493Y-105172000D01*
X162735770Y-105187372D01*
X162735770Y-105187372D01*
G37*
G36*
X165275770Y-105187372D02*
X165391689Y-105210429D01*
X165573678Y-105285811D01*
X165737463Y-105395249D01*
X165876751Y-105534537D01*
X165986189Y-105698322D01*
X166061571Y-105880311D01*
X166100000Y-106073509D01*
X166100000Y-106270491D01*
X166061571Y-106463689D01*
X165986189Y-106645678D01*
X165876751Y-106809463D01*
X165737463Y-106948751D01*
X165573678Y-107058189D01*
X165391689Y-107133571D01*
X165275770Y-107156628D01*
X165198493Y-107172000D01*
X165001507Y-107172000D01*
X164924230Y-107156628D01*
X164808311Y-107133571D01*
X164626322Y-107058189D01*
X164462537Y-106948751D01*
X164323249Y-106809463D01*
X164213811Y-106645678D01*
X164138429Y-106463689D01*
X164100000Y-106270491D01*
X164100000Y-106073509D01*
X164138429Y-105880311D01*
X164213811Y-105698322D01*
X164323249Y-105534537D01*
X164462537Y-105395249D01*
X164626322Y-105285811D01*
X164808311Y-105210429D01*
X164924230Y-105187372D01*
X165001507Y-105172000D01*
X165198493Y-105172000D01*
X165275770Y-105187372D01*
X165275770Y-105187372D01*
G37*
G36*
X167815770Y-105187372D02*
X167931689Y-105210429D01*
X168113678Y-105285811D01*
X168277463Y-105395249D01*
X168416751Y-105534537D01*
X168526189Y-105698322D01*
X168601571Y-105880311D01*
X168640000Y-106073509D01*
X168640000Y-106270491D01*
X168601571Y-106463689D01*
X168526189Y-106645678D01*
X168416751Y-106809463D01*
X168277463Y-106948751D01*
X168113678Y-107058189D01*
X167931689Y-107133571D01*
X167815770Y-107156628D01*
X167738493Y-107172000D01*
X167541507Y-107172000D01*
X167464230Y-107156628D01*
X167348311Y-107133571D01*
X167166322Y-107058189D01*
X167002537Y-106948751D01*
X166863249Y-106809463D01*
X166753811Y-106645678D01*
X166678429Y-106463689D01*
X166640000Y-106270491D01*
X166640000Y-106073509D01*
X166678429Y-105880311D01*
X166753811Y-105698322D01*
X166863249Y-105534537D01*
X167002537Y-105395249D01*
X167166322Y-105285811D01*
X167348311Y-105210429D01*
X167464230Y-105187372D01*
X167541507Y-105172000D01*
X167738493Y-105172000D01*
X167815770Y-105187372D01*
X167815770Y-105187372D01*
G37*
G36*
X170355770Y-105187372D02*
X170471689Y-105210429D01*
X170653678Y-105285811D01*
X170817463Y-105395249D01*
X170956751Y-105534537D01*
X171066189Y-105698322D01*
X171141571Y-105880311D01*
X171180000Y-106073509D01*
X171180000Y-106270491D01*
X171141571Y-106463689D01*
X171066189Y-106645678D01*
X170956751Y-106809463D01*
X170817463Y-106948751D01*
X170653678Y-107058189D01*
X170471689Y-107133571D01*
X170355770Y-107156628D01*
X170278493Y-107172000D01*
X170081507Y-107172000D01*
X170004230Y-107156628D01*
X169888311Y-107133571D01*
X169706322Y-107058189D01*
X169542537Y-106948751D01*
X169403249Y-106809463D01*
X169293811Y-106645678D01*
X169218429Y-106463689D01*
X169180000Y-106270491D01*
X169180000Y-106073509D01*
X169218429Y-105880311D01*
X169293811Y-105698322D01*
X169403249Y-105534537D01*
X169542537Y-105395249D01*
X169706322Y-105285811D01*
X169888311Y-105210429D01*
X170004230Y-105187372D01*
X170081507Y-105172000D01*
X170278493Y-105172000D01*
X170355770Y-105187372D01*
X170355770Y-105187372D01*
G37*
G36*
X172895770Y-105187372D02*
X173011689Y-105210429D01*
X173193678Y-105285811D01*
X173357463Y-105395249D01*
X173496751Y-105534537D01*
X173606189Y-105698322D01*
X173681571Y-105880311D01*
X173720000Y-106073509D01*
X173720000Y-106270491D01*
X173681571Y-106463689D01*
X173606189Y-106645678D01*
X173496751Y-106809463D01*
X173357463Y-106948751D01*
X173193678Y-107058189D01*
X173011689Y-107133571D01*
X172895770Y-107156628D01*
X172818493Y-107172000D01*
X172621507Y-107172000D01*
X172544230Y-107156628D01*
X172428311Y-107133571D01*
X172246322Y-107058189D01*
X172082537Y-106948751D01*
X171943249Y-106809463D01*
X171833811Y-106645678D01*
X171758429Y-106463689D01*
X171720000Y-106270491D01*
X171720000Y-106073509D01*
X171758429Y-105880311D01*
X171833811Y-105698322D01*
X171943249Y-105534537D01*
X172082537Y-105395249D01*
X172246322Y-105285811D01*
X172428311Y-105210429D01*
X172544230Y-105187372D01*
X172621507Y-105172000D01*
X172818493Y-105172000D01*
X172895770Y-105187372D01*
X172895770Y-105187372D01*
G37*
G36*
X129715770Y-105187372D02*
X129831689Y-105210429D01*
X130013678Y-105285811D01*
X130177463Y-105395249D01*
X130316751Y-105534537D01*
X130426189Y-105698322D01*
X130501571Y-105880311D01*
X130540000Y-106073509D01*
X130540000Y-106270491D01*
X130501571Y-106463689D01*
X130426189Y-106645678D01*
X130316751Y-106809463D01*
X130177463Y-106948751D01*
X130013678Y-107058189D01*
X129831689Y-107133571D01*
X129715770Y-107156628D01*
X129638493Y-107172000D01*
X129441507Y-107172000D01*
X129364230Y-107156628D01*
X129248311Y-107133571D01*
X129066322Y-107058189D01*
X128902537Y-106948751D01*
X128763249Y-106809463D01*
X128653811Y-106645678D01*
X128578429Y-106463689D01*
X128540000Y-106270491D01*
X128540000Y-106073509D01*
X128578429Y-105880311D01*
X128653811Y-105698322D01*
X128763249Y-105534537D01*
X128902537Y-105395249D01*
X129066322Y-105285811D01*
X129248311Y-105210429D01*
X129364230Y-105187372D01*
X129441507Y-105172000D01*
X129638493Y-105172000D01*
X129715770Y-105187372D01*
X129715770Y-105187372D01*
G37*
G36*
X127175770Y-105187372D02*
X127291689Y-105210429D01*
X127473678Y-105285811D01*
X127637463Y-105395249D01*
X127776751Y-105534537D01*
X127886189Y-105698322D01*
X127961571Y-105880311D01*
X128000000Y-106073509D01*
X128000000Y-106270491D01*
X127961571Y-106463689D01*
X127886189Y-106645678D01*
X127776751Y-106809463D01*
X127637463Y-106948751D01*
X127473678Y-107058189D01*
X127291689Y-107133571D01*
X127175770Y-107156628D01*
X127098493Y-107172000D01*
X126901507Y-107172000D01*
X126824230Y-107156628D01*
X126708311Y-107133571D01*
X126526322Y-107058189D01*
X126362537Y-106948751D01*
X126223249Y-106809463D01*
X126113811Y-106645678D01*
X126038429Y-106463689D01*
X126000000Y-106270491D01*
X126000000Y-106073509D01*
X126038429Y-105880311D01*
X126113811Y-105698322D01*
X126223249Y-105534537D01*
X126362537Y-105395249D01*
X126526322Y-105285811D01*
X126708311Y-105210429D01*
X126824230Y-105187372D01*
X126901507Y-105172000D01*
X127098493Y-105172000D01*
X127175770Y-105187372D01*
X127175770Y-105187372D01*
G37*
G36*
X157655770Y-105187372D02*
X157771689Y-105210429D01*
X157953678Y-105285811D01*
X158117463Y-105395249D01*
X158256751Y-105534537D01*
X158366189Y-105698322D01*
X158441571Y-105880311D01*
X158480000Y-106073509D01*
X158480000Y-106270491D01*
X158441571Y-106463689D01*
X158366189Y-106645678D01*
X158256751Y-106809463D01*
X158117463Y-106948751D01*
X157953678Y-107058189D01*
X157771689Y-107133571D01*
X157655770Y-107156628D01*
X157578493Y-107172000D01*
X157381507Y-107172000D01*
X157304230Y-107156628D01*
X157188311Y-107133571D01*
X157006322Y-107058189D01*
X156842537Y-106948751D01*
X156703249Y-106809463D01*
X156593811Y-106645678D01*
X156518429Y-106463689D01*
X156480000Y-106270491D01*
X156480000Y-106073509D01*
X156518429Y-105880311D01*
X156593811Y-105698322D01*
X156703249Y-105534537D01*
X156842537Y-105395249D01*
X157006322Y-105285811D01*
X157188311Y-105210429D01*
X157304230Y-105187372D01*
X157381507Y-105172000D01*
X157578493Y-105172000D01*
X157655770Y-105187372D01*
X157655770Y-105187372D01*
G37*
G36*
X120090378Y-102978859D02*
X120454354Y-103129622D01*
X120781929Y-103348501D01*
X121060499Y-103627071D01*
X121279378Y-103954646D01*
X121430141Y-104318622D01*
X121507000Y-104705016D01*
X121507000Y-105098984D01*
X121430141Y-105485378D01*
X121279378Y-105849354D01*
X121060499Y-106176929D01*
X120781929Y-106455499D01*
X120454354Y-106674378D01*
X120090378Y-106825141D01*
X119703984Y-106902000D01*
X119310016Y-106902000D01*
X118923622Y-106825141D01*
X118559646Y-106674378D01*
X118232071Y-106455499D01*
X117953501Y-106176929D01*
X117734622Y-105849354D01*
X117583859Y-105485378D01*
X117507000Y-105098984D01*
X117507000Y-104705016D01*
X117583859Y-104318622D01*
X117734622Y-103954646D01*
X117953501Y-103627071D01*
X118232071Y-103348501D01*
X118559646Y-103129622D01*
X118923622Y-102978859D01*
X119310016Y-102902000D01*
X119703984Y-102902000D01*
X120090378Y-102978859D01*
X120090378Y-102978859D01*
G37*
G36*
X178256378Y-102978859D02*
X178620354Y-103129622D01*
X178947929Y-103348501D01*
X179226499Y-103627071D01*
X179445378Y-103954646D01*
X179596141Y-104318622D01*
X179673000Y-104705016D01*
X179673000Y-105098984D01*
X179596141Y-105485378D01*
X179445378Y-105849354D01*
X179226499Y-106176929D01*
X178947929Y-106455499D01*
X178620354Y-106674378D01*
X178256378Y-106825141D01*
X177869984Y-106902000D01*
X177476016Y-106902000D01*
X177089622Y-106825141D01*
X176725646Y-106674378D01*
X176398071Y-106455499D01*
X176119501Y-106176929D01*
X175900622Y-105849354D01*
X175749859Y-105485378D01*
X175673000Y-105098984D01*
X175673000Y-104705016D01*
X175749859Y-104318622D01*
X175900622Y-103954646D01*
X176119501Y-103627071D01*
X176398071Y-103348501D01*
X176725646Y-103129622D01*
X177089622Y-102978859D01*
X177476016Y-102902000D01*
X177869984Y-102902000D01*
X178256378Y-102978859D01*
X178256378Y-102978859D01*
G37*
G36*
X124635770Y-102647372D02*
X124751689Y-102670429D01*
X124933678Y-102745811D01*
X125097463Y-102855249D01*
X125236751Y-102994537D01*
X125346189Y-103158322D01*
X125421571Y-103340311D01*
X125460000Y-103533509D01*
X125460000Y-103730491D01*
X125421571Y-103923689D01*
X125346189Y-104105678D01*
X125236751Y-104269463D01*
X125097463Y-104408751D01*
X124933678Y-104518189D01*
X124751689Y-104593571D01*
X124635770Y-104616628D01*
X124558493Y-104632000D01*
X124361507Y-104632000D01*
X124284230Y-104616628D01*
X124168311Y-104593571D01*
X123986322Y-104518189D01*
X123822537Y-104408751D01*
X123683249Y-104269463D01*
X123573811Y-104105678D01*
X123498429Y-103923689D01*
X123460000Y-103730491D01*
X123460000Y-103533509D01*
X123498429Y-103340311D01*
X123573811Y-103158322D01*
X123683249Y-102994537D01*
X123822537Y-102855249D01*
X123986322Y-102745811D01*
X124168311Y-102670429D01*
X124284230Y-102647372D01*
X124361507Y-102632000D01*
X124558493Y-102632000D01*
X124635770Y-102647372D01*
X124635770Y-102647372D01*
G37*
G36*
X157655770Y-102647372D02*
X157771689Y-102670429D01*
X157953678Y-102745811D01*
X158117463Y-102855249D01*
X158256751Y-102994537D01*
X158366189Y-103158322D01*
X158441571Y-103340311D01*
X158480000Y-103533509D01*
X158480000Y-103730491D01*
X158441571Y-103923689D01*
X158366189Y-104105678D01*
X158256751Y-104269463D01*
X158117463Y-104408751D01*
X157953678Y-104518189D01*
X157771689Y-104593571D01*
X157655770Y-104616628D01*
X157578493Y-104632000D01*
X157381507Y-104632000D01*
X157304230Y-104616628D01*
X157188311Y-104593571D01*
X157006322Y-104518189D01*
X156842537Y-104408751D01*
X156703249Y-104269463D01*
X156593811Y-104105678D01*
X156518429Y-103923689D01*
X156480000Y-103730491D01*
X156480000Y-103533509D01*
X156518429Y-103340311D01*
X156593811Y-103158322D01*
X156703249Y-102994537D01*
X156842537Y-102855249D01*
X157006322Y-102745811D01*
X157188311Y-102670429D01*
X157304230Y-102647372D01*
X157381507Y-102632000D01*
X157578493Y-102632000D01*
X157655770Y-102647372D01*
X157655770Y-102647372D01*
G37*
G36*
X152575770Y-102647372D02*
X152691689Y-102670429D01*
X152873678Y-102745811D01*
X153037463Y-102855249D01*
X153176751Y-102994537D01*
X153286189Y-103158322D01*
X153361571Y-103340311D01*
X153400000Y-103533509D01*
X153400000Y-103730491D01*
X153361571Y-103923689D01*
X153286189Y-104105678D01*
X153176751Y-104269463D01*
X153037463Y-104408751D01*
X152873678Y-104518189D01*
X152691689Y-104593571D01*
X152575770Y-104616628D01*
X152498493Y-104632000D01*
X152301507Y-104632000D01*
X152224230Y-104616628D01*
X152108311Y-104593571D01*
X151926322Y-104518189D01*
X151762537Y-104408751D01*
X151623249Y-104269463D01*
X151513811Y-104105678D01*
X151438429Y-103923689D01*
X151400000Y-103730491D01*
X151400000Y-103533509D01*
X151438429Y-103340311D01*
X151513811Y-103158322D01*
X151623249Y-102994537D01*
X151762537Y-102855249D01*
X151926322Y-102745811D01*
X152108311Y-102670429D01*
X152224230Y-102647372D01*
X152301507Y-102632000D01*
X152498493Y-102632000D01*
X152575770Y-102647372D01*
X152575770Y-102647372D01*
G37*
G36*
X160195770Y-102647372D02*
X160311689Y-102670429D01*
X160493678Y-102745811D01*
X160657463Y-102855249D01*
X160796751Y-102994537D01*
X160906189Y-103158322D01*
X160981571Y-103340311D01*
X161020000Y-103533509D01*
X161020000Y-103730491D01*
X160981571Y-103923689D01*
X160906189Y-104105678D01*
X160796751Y-104269463D01*
X160657463Y-104408751D01*
X160493678Y-104518189D01*
X160311689Y-104593571D01*
X160195770Y-104616628D01*
X160118493Y-104632000D01*
X159921507Y-104632000D01*
X159844230Y-104616628D01*
X159728311Y-104593571D01*
X159546322Y-104518189D01*
X159382537Y-104408751D01*
X159243249Y-104269463D01*
X159133811Y-104105678D01*
X159058429Y-103923689D01*
X159020000Y-103730491D01*
X159020000Y-103533509D01*
X159058429Y-103340311D01*
X159133811Y-103158322D01*
X159243249Y-102994537D01*
X159382537Y-102855249D01*
X159546322Y-102745811D01*
X159728311Y-102670429D01*
X159844230Y-102647372D01*
X159921507Y-102632000D01*
X160118493Y-102632000D01*
X160195770Y-102647372D01*
X160195770Y-102647372D01*
G37*
G36*
X150035770Y-102647372D02*
X150151689Y-102670429D01*
X150333678Y-102745811D01*
X150497463Y-102855249D01*
X150636751Y-102994537D01*
X150746189Y-103158322D01*
X150821571Y-103340311D01*
X150860000Y-103533509D01*
X150860000Y-103730491D01*
X150821571Y-103923689D01*
X150746189Y-104105678D01*
X150636751Y-104269463D01*
X150497463Y-104408751D01*
X150333678Y-104518189D01*
X150151689Y-104593571D01*
X150035770Y-104616628D01*
X149958493Y-104632000D01*
X149761507Y-104632000D01*
X149684230Y-104616628D01*
X149568311Y-104593571D01*
X149386322Y-104518189D01*
X149222537Y-104408751D01*
X149083249Y-104269463D01*
X148973811Y-104105678D01*
X148898429Y-103923689D01*
X148860000Y-103730491D01*
X148860000Y-103533509D01*
X148898429Y-103340311D01*
X148973811Y-103158322D01*
X149083249Y-102994537D01*
X149222537Y-102855249D01*
X149386322Y-102745811D01*
X149568311Y-102670429D01*
X149684230Y-102647372D01*
X149761507Y-102632000D01*
X149958493Y-102632000D01*
X150035770Y-102647372D01*
X150035770Y-102647372D01*
G37*
G36*
X162735770Y-102647372D02*
X162851689Y-102670429D01*
X163033678Y-102745811D01*
X163197463Y-102855249D01*
X163336751Y-102994537D01*
X163446189Y-103158322D01*
X163521571Y-103340311D01*
X163560000Y-103533509D01*
X163560000Y-103730491D01*
X163521571Y-103923689D01*
X163446189Y-104105678D01*
X163336751Y-104269463D01*
X163197463Y-104408751D01*
X163033678Y-104518189D01*
X162851689Y-104593571D01*
X162735770Y-104616628D01*
X162658493Y-104632000D01*
X162461507Y-104632000D01*
X162384230Y-104616628D01*
X162268311Y-104593571D01*
X162086322Y-104518189D01*
X161922537Y-104408751D01*
X161783249Y-104269463D01*
X161673811Y-104105678D01*
X161598429Y-103923689D01*
X161560000Y-103730491D01*
X161560000Y-103533509D01*
X161598429Y-103340311D01*
X161673811Y-103158322D01*
X161783249Y-102994537D01*
X161922537Y-102855249D01*
X162086322Y-102745811D01*
X162268311Y-102670429D01*
X162384230Y-102647372D01*
X162461507Y-102632000D01*
X162658493Y-102632000D01*
X162735770Y-102647372D01*
X162735770Y-102647372D01*
G37*
G36*
X147495770Y-102647372D02*
X147611689Y-102670429D01*
X147793678Y-102745811D01*
X147957463Y-102855249D01*
X148096751Y-102994537D01*
X148206189Y-103158322D01*
X148281571Y-103340311D01*
X148320000Y-103533509D01*
X148320000Y-103730491D01*
X148281571Y-103923689D01*
X148206189Y-104105678D01*
X148096751Y-104269463D01*
X147957463Y-104408751D01*
X147793678Y-104518189D01*
X147611689Y-104593571D01*
X147495770Y-104616628D01*
X147418493Y-104632000D01*
X147221507Y-104632000D01*
X147144230Y-104616628D01*
X147028311Y-104593571D01*
X146846322Y-104518189D01*
X146682537Y-104408751D01*
X146543249Y-104269463D01*
X146433811Y-104105678D01*
X146358429Y-103923689D01*
X146320000Y-103730491D01*
X146320000Y-103533509D01*
X146358429Y-103340311D01*
X146433811Y-103158322D01*
X146543249Y-102994537D01*
X146682537Y-102855249D01*
X146846322Y-102745811D01*
X147028311Y-102670429D01*
X147144230Y-102647372D01*
X147221507Y-102632000D01*
X147418493Y-102632000D01*
X147495770Y-102647372D01*
X147495770Y-102647372D01*
G37*
G36*
X165275770Y-102647372D02*
X165391689Y-102670429D01*
X165573678Y-102745811D01*
X165737463Y-102855249D01*
X165876751Y-102994537D01*
X165986189Y-103158322D01*
X166061571Y-103340311D01*
X166100000Y-103533509D01*
X166100000Y-103730491D01*
X166061571Y-103923689D01*
X165986189Y-104105678D01*
X165876751Y-104269463D01*
X165737463Y-104408751D01*
X165573678Y-104518189D01*
X165391689Y-104593571D01*
X165275770Y-104616628D01*
X165198493Y-104632000D01*
X165001507Y-104632000D01*
X164924230Y-104616628D01*
X164808311Y-104593571D01*
X164626322Y-104518189D01*
X164462537Y-104408751D01*
X164323249Y-104269463D01*
X164213811Y-104105678D01*
X164138429Y-103923689D01*
X164100000Y-103730491D01*
X164100000Y-103533509D01*
X164138429Y-103340311D01*
X164213811Y-103158322D01*
X164323249Y-102994537D01*
X164462537Y-102855249D01*
X164626322Y-102745811D01*
X164808311Y-102670429D01*
X164924230Y-102647372D01*
X165001507Y-102632000D01*
X165198493Y-102632000D01*
X165275770Y-102647372D01*
X165275770Y-102647372D01*
G37*
G36*
X144955770Y-102647372D02*
X145071689Y-102670429D01*
X145253678Y-102745811D01*
X145417463Y-102855249D01*
X145556751Y-102994537D01*
X145666189Y-103158322D01*
X145741571Y-103340311D01*
X145780000Y-103533509D01*
X145780000Y-103730491D01*
X145741571Y-103923689D01*
X145666189Y-104105678D01*
X145556751Y-104269463D01*
X145417463Y-104408751D01*
X145253678Y-104518189D01*
X145071689Y-104593571D01*
X144955770Y-104616628D01*
X144878493Y-104632000D01*
X144681507Y-104632000D01*
X144604230Y-104616628D01*
X144488311Y-104593571D01*
X144306322Y-104518189D01*
X144142537Y-104408751D01*
X144003249Y-104269463D01*
X143893811Y-104105678D01*
X143818429Y-103923689D01*
X143780000Y-103730491D01*
X143780000Y-103533509D01*
X143818429Y-103340311D01*
X143893811Y-103158322D01*
X144003249Y-102994537D01*
X144142537Y-102855249D01*
X144306322Y-102745811D01*
X144488311Y-102670429D01*
X144604230Y-102647372D01*
X144681507Y-102632000D01*
X144878493Y-102632000D01*
X144955770Y-102647372D01*
X144955770Y-102647372D01*
G37*
G36*
X167815770Y-102647372D02*
X167931689Y-102670429D01*
X168113678Y-102745811D01*
X168277463Y-102855249D01*
X168416751Y-102994537D01*
X168526189Y-103158322D01*
X168601571Y-103340311D01*
X168640000Y-103533509D01*
X168640000Y-103730491D01*
X168601571Y-103923689D01*
X168526189Y-104105678D01*
X168416751Y-104269463D01*
X168277463Y-104408751D01*
X168113678Y-104518189D01*
X167931689Y-104593571D01*
X167815770Y-104616628D01*
X167738493Y-104632000D01*
X167541507Y-104632000D01*
X167464230Y-104616628D01*
X167348311Y-104593571D01*
X167166322Y-104518189D01*
X167002537Y-104408751D01*
X166863249Y-104269463D01*
X166753811Y-104105678D01*
X166678429Y-103923689D01*
X166640000Y-103730491D01*
X166640000Y-103533509D01*
X166678429Y-103340311D01*
X166753811Y-103158322D01*
X166863249Y-102994537D01*
X167002537Y-102855249D01*
X167166322Y-102745811D01*
X167348311Y-102670429D01*
X167464230Y-102647372D01*
X167541507Y-102632000D01*
X167738493Y-102632000D01*
X167815770Y-102647372D01*
X167815770Y-102647372D01*
G37*
G36*
X155115770Y-102647372D02*
X155231689Y-102670429D01*
X155413678Y-102745811D01*
X155577463Y-102855249D01*
X155716751Y-102994537D01*
X155826189Y-103158322D01*
X155901571Y-103340311D01*
X155940000Y-103533509D01*
X155940000Y-103730491D01*
X155901571Y-103923689D01*
X155826189Y-104105678D01*
X155716751Y-104269463D01*
X155577463Y-104408751D01*
X155413678Y-104518189D01*
X155231689Y-104593571D01*
X155115770Y-104616628D01*
X155038493Y-104632000D01*
X154841507Y-104632000D01*
X154764230Y-104616628D01*
X154648311Y-104593571D01*
X154466322Y-104518189D01*
X154302537Y-104408751D01*
X154163249Y-104269463D01*
X154053811Y-104105678D01*
X153978429Y-103923689D01*
X153940000Y-103730491D01*
X153940000Y-103533509D01*
X153978429Y-103340311D01*
X154053811Y-103158322D01*
X154163249Y-102994537D01*
X154302537Y-102855249D01*
X154466322Y-102745811D01*
X154648311Y-102670429D01*
X154764230Y-102647372D01*
X154841507Y-102632000D01*
X155038493Y-102632000D01*
X155115770Y-102647372D01*
X155115770Y-102647372D01*
G37*
G36*
X139875770Y-102647372D02*
X139991689Y-102670429D01*
X140173678Y-102745811D01*
X140337463Y-102855249D01*
X140476751Y-102994537D01*
X140586189Y-103158322D01*
X140661571Y-103340311D01*
X140700000Y-103533509D01*
X140700000Y-103730491D01*
X140661571Y-103923689D01*
X140586189Y-104105678D01*
X140476751Y-104269463D01*
X140337463Y-104408751D01*
X140173678Y-104518189D01*
X139991689Y-104593571D01*
X139875770Y-104616628D01*
X139798493Y-104632000D01*
X139601507Y-104632000D01*
X139524230Y-104616628D01*
X139408311Y-104593571D01*
X139226322Y-104518189D01*
X139062537Y-104408751D01*
X138923249Y-104269463D01*
X138813811Y-104105678D01*
X138738429Y-103923689D01*
X138700000Y-103730491D01*
X138700000Y-103533509D01*
X138738429Y-103340311D01*
X138813811Y-103158322D01*
X138923249Y-102994537D01*
X139062537Y-102855249D01*
X139226322Y-102745811D01*
X139408311Y-102670429D01*
X139524230Y-102647372D01*
X139601507Y-102632000D01*
X139798493Y-102632000D01*
X139875770Y-102647372D01*
X139875770Y-102647372D01*
G37*
G36*
X137335770Y-102647372D02*
X137451689Y-102670429D01*
X137633678Y-102745811D01*
X137797463Y-102855249D01*
X137936751Y-102994537D01*
X138046189Y-103158322D01*
X138121571Y-103340311D01*
X138160000Y-103533509D01*
X138160000Y-103730491D01*
X138121571Y-103923689D01*
X138046189Y-104105678D01*
X137936751Y-104269463D01*
X137797463Y-104408751D01*
X137633678Y-104518189D01*
X137451689Y-104593571D01*
X137335770Y-104616628D01*
X137258493Y-104632000D01*
X137061507Y-104632000D01*
X136984230Y-104616628D01*
X136868311Y-104593571D01*
X136686322Y-104518189D01*
X136522537Y-104408751D01*
X136383249Y-104269463D01*
X136273811Y-104105678D01*
X136198429Y-103923689D01*
X136160000Y-103730491D01*
X136160000Y-103533509D01*
X136198429Y-103340311D01*
X136273811Y-103158322D01*
X136383249Y-102994537D01*
X136522537Y-102855249D01*
X136686322Y-102745811D01*
X136868311Y-102670429D01*
X136984230Y-102647372D01*
X137061507Y-102632000D01*
X137258493Y-102632000D01*
X137335770Y-102647372D01*
X137335770Y-102647372D01*
G37*
G36*
X134795770Y-102647372D02*
X134911689Y-102670429D01*
X135093678Y-102745811D01*
X135257463Y-102855249D01*
X135396751Y-102994537D01*
X135506189Y-103158322D01*
X135581571Y-103340311D01*
X135620000Y-103533509D01*
X135620000Y-103730491D01*
X135581571Y-103923689D01*
X135506189Y-104105678D01*
X135396751Y-104269463D01*
X135257463Y-104408751D01*
X135093678Y-104518189D01*
X134911689Y-104593571D01*
X134795770Y-104616628D01*
X134718493Y-104632000D01*
X134521507Y-104632000D01*
X134444230Y-104616628D01*
X134328311Y-104593571D01*
X134146322Y-104518189D01*
X133982537Y-104408751D01*
X133843249Y-104269463D01*
X133733811Y-104105678D01*
X133658429Y-103923689D01*
X133620000Y-103730491D01*
X133620000Y-103533509D01*
X133658429Y-103340311D01*
X133733811Y-103158322D01*
X133843249Y-102994537D01*
X133982537Y-102855249D01*
X134146322Y-102745811D01*
X134328311Y-102670429D01*
X134444230Y-102647372D01*
X134521507Y-102632000D01*
X134718493Y-102632000D01*
X134795770Y-102647372D01*
X134795770Y-102647372D01*
G37*
G36*
X129715770Y-102647372D02*
X129831689Y-102670429D01*
X130013678Y-102745811D01*
X130177463Y-102855249D01*
X130316751Y-102994537D01*
X130426189Y-103158322D01*
X130501571Y-103340311D01*
X130540000Y-103533509D01*
X130540000Y-103730491D01*
X130501571Y-103923689D01*
X130426189Y-104105678D01*
X130316751Y-104269463D01*
X130177463Y-104408751D01*
X130013678Y-104518189D01*
X129831689Y-104593571D01*
X129715770Y-104616628D01*
X129638493Y-104632000D01*
X129441507Y-104632000D01*
X129364230Y-104616628D01*
X129248311Y-104593571D01*
X129066322Y-104518189D01*
X128902537Y-104408751D01*
X128763249Y-104269463D01*
X128653811Y-104105678D01*
X128578429Y-103923689D01*
X128540000Y-103730491D01*
X128540000Y-103533509D01*
X128578429Y-103340311D01*
X128653811Y-103158322D01*
X128763249Y-102994537D01*
X128902537Y-102855249D01*
X129066322Y-102745811D01*
X129248311Y-102670429D01*
X129364230Y-102647372D01*
X129441507Y-102632000D01*
X129638493Y-102632000D01*
X129715770Y-102647372D01*
X129715770Y-102647372D01*
G37*
G36*
X132255770Y-102647372D02*
X132371689Y-102670429D01*
X132553678Y-102745811D01*
X132717463Y-102855249D01*
X132856751Y-102994537D01*
X132966189Y-103158322D01*
X133041571Y-103340311D01*
X133080000Y-103533509D01*
X133080000Y-103730491D01*
X133041571Y-103923689D01*
X132966189Y-104105678D01*
X132856751Y-104269463D01*
X132717463Y-104408751D01*
X132553678Y-104518189D01*
X132371689Y-104593571D01*
X132255770Y-104616628D01*
X132178493Y-104632000D01*
X131981507Y-104632000D01*
X131904230Y-104616628D01*
X131788311Y-104593571D01*
X131606322Y-104518189D01*
X131442537Y-104408751D01*
X131303249Y-104269463D01*
X131193811Y-104105678D01*
X131118429Y-103923689D01*
X131080000Y-103730491D01*
X131080000Y-103533509D01*
X131118429Y-103340311D01*
X131193811Y-103158322D01*
X131303249Y-102994537D01*
X131442537Y-102855249D01*
X131606322Y-102745811D01*
X131788311Y-102670429D01*
X131904230Y-102647372D01*
X131981507Y-102632000D01*
X132178493Y-102632000D01*
X132255770Y-102647372D01*
X132255770Y-102647372D01*
G37*
G36*
X127175770Y-102647372D02*
X127291689Y-102670429D01*
X127473678Y-102745811D01*
X127637463Y-102855249D01*
X127776751Y-102994537D01*
X127886189Y-103158322D01*
X127961571Y-103340311D01*
X128000000Y-103533509D01*
X128000000Y-103730491D01*
X127961571Y-103923689D01*
X127886189Y-104105678D01*
X127776751Y-104269463D01*
X127637463Y-104408751D01*
X127473678Y-104518189D01*
X127291689Y-104593571D01*
X127175770Y-104616628D01*
X127098493Y-104632000D01*
X126901507Y-104632000D01*
X126824230Y-104616628D01*
X126708311Y-104593571D01*
X126526322Y-104518189D01*
X126362537Y-104408751D01*
X126223249Y-104269463D01*
X126113811Y-104105678D01*
X126038429Y-103923689D01*
X126000000Y-103730491D01*
X126000000Y-103533509D01*
X126038429Y-103340311D01*
X126113811Y-103158322D01*
X126223249Y-102994537D01*
X126362537Y-102855249D01*
X126526322Y-102745811D01*
X126708311Y-102670429D01*
X126824230Y-102647372D01*
X126901507Y-102632000D01*
X127098493Y-102632000D01*
X127175770Y-102647372D01*
X127175770Y-102647372D01*
G37*
G36*
X142415770Y-102647372D02*
X142531689Y-102670429D01*
X142713678Y-102745811D01*
X142877463Y-102855249D01*
X143016751Y-102994537D01*
X143126189Y-103158322D01*
X143201571Y-103340311D01*
X143240000Y-103533509D01*
X143240000Y-103730491D01*
X143201571Y-103923689D01*
X143126189Y-104105678D01*
X143016751Y-104269463D01*
X142877463Y-104408751D01*
X142713678Y-104518189D01*
X142531689Y-104593571D01*
X142415770Y-104616628D01*
X142338493Y-104632000D01*
X142141507Y-104632000D01*
X142064230Y-104616628D01*
X141948311Y-104593571D01*
X141766322Y-104518189D01*
X141602537Y-104408751D01*
X141463249Y-104269463D01*
X141353811Y-104105678D01*
X141278429Y-103923689D01*
X141240000Y-103730491D01*
X141240000Y-103533509D01*
X141278429Y-103340311D01*
X141353811Y-103158322D01*
X141463249Y-102994537D01*
X141602537Y-102855249D01*
X141766322Y-102745811D01*
X141948311Y-102670429D01*
X142064230Y-102647372D01*
X142141507Y-102632000D01*
X142338493Y-102632000D01*
X142415770Y-102647372D01*
X142415770Y-102647372D01*
G37*
G36*
X172895770Y-102647372D02*
X173011689Y-102670429D01*
X173193678Y-102745811D01*
X173357463Y-102855249D01*
X173496751Y-102994537D01*
X173606189Y-103158322D01*
X173681571Y-103340311D01*
X173720000Y-103533509D01*
X173720000Y-103730491D01*
X173681571Y-103923689D01*
X173606189Y-104105678D01*
X173496751Y-104269463D01*
X173357463Y-104408751D01*
X173193678Y-104518189D01*
X173011689Y-104593571D01*
X172895770Y-104616628D01*
X172818493Y-104632000D01*
X172621507Y-104632000D01*
X172544230Y-104616628D01*
X172428311Y-104593571D01*
X172246322Y-104518189D01*
X172082537Y-104408751D01*
X171943249Y-104269463D01*
X171833811Y-104105678D01*
X171758429Y-103923689D01*
X171720000Y-103730491D01*
X171720000Y-103533509D01*
X171758429Y-103340311D01*
X171833811Y-103158322D01*
X171943249Y-102994537D01*
X172082537Y-102855249D01*
X172246322Y-102745811D01*
X172428311Y-102670429D01*
X172544230Y-102647372D01*
X172621507Y-102632000D01*
X172818493Y-102632000D01*
X172895770Y-102647372D01*
X172895770Y-102647372D01*
G37*
G36*
X170355770Y-102647372D02*
X170471689Y-102670429D01*
X170653678Y-102745811D01*
X170817463Y-102855249D01*
X170956751Y-102994537D01*
X171066189Y-103158322D01*
X171141571Y-103340311D01*
X171180000Y-103533509D01*
X171180000Y-103730491D01*
X171141571Y-103923689D01*
X171066189Y-104105678D01*
X170956751Y-104269463D01*
X170817463Y-104408751D01*
X170653678Y-104518189D01*
X170471689Y-104593571D01*
X170355770Y-104616628D01*
X170278493Y-104632000D01*
X170081507Y-104632000D01*
X170004230Y-104616628D01*
X169888311Y-104593571D01*
X169706322Y-104518189D01*
X169542537Y-104408751D01*
X169403249Y-104269463D01*
X169293811Y-104105678D01*
X169218429Y-103923689D01*
X169180000Y-103730491D01*
X169180000Y-103533509D01*
X169218429Y-103340311D01*
X169293811Y-103158322D01*
X169403249Y-102994537D01*
X169542537Y-102855249D01*
X169706322Y-102745811D01*
X169888311Y-102670429D01*
X170004230Y-102647372D01*
X170081507Y-102632000D01*
X170278493Y-102632000D01*
X170355770Y-102647372D01*
X170355770Y-102647372D01*
G37*
G36*
X175435770Y-98583372D02*
X175551689Y-98606429D01*
X175733678Y-98681811D01*
X175897463Y-98791249D01*
X176036751Y-98930537D01*
X176146189Y-99094322D01*
X176221571Y-99276311D01*
X176260000Y-99469509D01*
X176260000Y-99666491D01*
X176221571Y-99859689D01*
X176146189Y-100041678D01*
X176036751Y-100205463D01*
X175897463Y-100344751D01*
X175733678Y-100454189D01*
X175551689Y-100529571D01*
X175435770Y-100552628D01*
X175358493Y-100568000D01*
X175161507Y-100568000D01*
X175084230Y-100552628D01*
X174968311Y-100529571D01*
X174786322Y-100454189D01*
X174622537Y-100344751D01*
X174483249Y-100205463D01*
X174373811Y-100041678D01*
X174298429Y-99859689D01*
X174260000Y-99666491D01*
X174260000Y-99469509D01*
X174298429Y-99276311D01*
X174373811Y-99094322D01*
X174483249Y-98930537D01*
X174622537Y-98791249D01*
X174786322Y-98681811D01*
X174968311Y-98606429D01*
X175084230Y-98583372D01*
X175161507Y-98568000D01*
X175358493Y-98568000D01*
X175435770Y-98583372D01*
X175435770Y-98583372D01*
G37*
G36*
X177975770Y-98583372D02*
X178091689Y-98606429D01*
X178273678Y-98681811D01*
X178437463Y-98791249D01*
X178576751Y-98930537D01*
X178686189Y-99094322D01*
X178761571Y-99276311D01*
X178800000Y-99469509D01*
X178800000Y-99666491D01*
X178761571Y-99859689D01*
X178686189Y-100041678D01*
X178576751Y-100205463D01*
X178437463Y-100344751D01*
X178273678Y-100454189D01*
X178091689Y-100529571D01*
X177975770Y-100552628D01*
X177898493Y-100568000D01*
X177701507Y-100568000D01*
X177624230Y-100552628D01*
X177508311Y-100529571D01*
X177326322Y-100454189D01*
X177162537Y-100344751D01*
X177023249Y-100205463D01*
X176913811Y-100041678D01*
X176838429Y-99859689D01*
X176800000Y-99666491D01*
X176800000Y-99469509D01*
X176838429Y-99276311D01*
X176913811Y-99094322D01*
X177023249Y-98930537D01*
X177162537Y-98791249D01*
X177326322Y-98681811D01*
X177508311Y-98606429D01*
X177624230Y-98583372D01*
X177701507Y-98568000D01*
X177898493Y-98568000D01*
X177975770Y-98583372D01*
X177975770Y-98583372D01*
G37*
G36*
X147495770Y-98583372D02*
X147611689Y-98606429D01*
X147793678Y-98681811D01*
X147957463Y-98791249D01*
X148096751Y-98930537D01*
X148206189Y-99094322D01*
X148281571Y-99276311D01*
X148320000Y-99469509D01*
X148320000Y-99666491D01*
X148281571Y-99859689D01*
X148206189Y-100041678D01*
X148096751Y-100205463D01*
X147957463Y-100344751D01*
X147793678Y-100454189D01*
X147611689Y-100529571D01*
X147495770Y-100552628D01*
X147418493Y-100568000D01*
X147221507Y-100568000D01*
X147144230Y-100552628D01*
X147028311Y-100529571D01*
X146846322Y-100454189D01*
X146682537Y-100344751D01*
X146543249Y-100205463D01*
X146433811Y-100041678D01*
X146358429Y-99859689D01*
X146320000Y-99666491D01*
X146320000Y-99469509D01*
X146358429Y-99276311D01*
X146433811Y-99094322D01*
X146543249Y-98930537D01*
X146682537Y-98791249D01*
X146846322Y-98681811D01*
X147028311Y-98606429D01*
X147144230Y-98583372D01*
X147221507Y-98568000D01*
X147418493Y-98568000D01*
X147495770Y-98583372D01*
X147495770Y-98583372D01*
G37*
G36*
X152575770Y-98583372D02*
X152691689Y-98606429D01*
X152873678Y-98681811D01*
X153037463Y-98791249D01*
X153176751Y-98930537D01*
X153286189Y-99094322D01*
X153361571Y-99276311D01*
X153400000Y-99469509D01*
X153400000Y-99666491D01*
X153361571Y-99859689D01*
X153286189Y-100041678D01*
X153176751Y-100205463D01*
X153037463Y-100344751D01*
X152873678Y-100454189D01*
X152691689Y-100529571D01*
X152575770Y-100552628D01*
X152498493Y-100568000D01*
X152301507Y-100568000D01*
X152224230Y-100552628D01*
X152108311Y-100529571D01*
X151926322Y-100454189D01*
X151762537Y-100344751D01*
X151623249Y-100205463D01*
X151513811Y-100041678D01*
X151438429Y-99859689D01*
X151400000Y-99666491D01*
X151400000Y-99469509D01*
X151438429Y-99276311D01*
X151513811Y-99094322D01*
X151623249Y-98930537D01*
X151762537Y-98791249D01*
X151926322Y-98681811D01*
X152108311Y-98606429D01*
X152224230Y-98583372D01*
X152301507Y-98568000D01*
X152498493Y-98568000D01*
X152575770Y-98583372D01*
X152575770Y-98583372D01*
G37*
G36*
X150035770Y-98583372D02*
X150151689Y-98606429D01*
X150333678Y-98681811D01*
X150497463Y-98791249D01*
X150636751Y-98930537D01*
X150746189Y-99094322D01*
X150821571Y-99276311D01*
X150860000Y-99469509D01*
X150860000Y-99666491D01*
X150821571Y-99859689D01*
X150746189Y-100041678D01*
X150636751Y-100205463D01*
X150497463Y-100344751D01*
X150333678Y-100454189D01*
X150151689Y-100529571D01*
X150035770Y-100552628D01*
X149958493Y-100568000D01*
X149761507Y-100568000D01*
X149684230Y-100552628D01*
X149568311Y-100529571D01*
X149386322Y-100454189D01*
X149222537Y-100344751D01*
X149083249Y-100205463D01*
X148973811Y-100041678D01*
X148898429Y-99859689D01*
X148860000Y-99666491D01*
X148860000Y-99469509D01*
X148898429Y-99276311D01*
X148973811Y-99094322D01*
X149083249Y-98930537D01*
X149222537Y-98791249D01*
X149386322Y-98681811D01*
X149568311Y-98606429D01*
X149684230Y-98583372D01*
X149761507Y-98568000D01*
X149958493Y-98568000D01*
X150035770Y-98583372D01*
X150035770Y-98583372D01*
G37*
G36*
X155115770Y-98583372D02*
X155231689Y-98606429D01*
X155413678Y-98681811D01*
X155577463Y-98791249D01*
X155716751Y-98930537D01*
X155826189Y-99094322D01*
X155901571Y-99276311D01*
X155940000Y-99469509D01*
X155940000Y-99666491D01*
X155901571Y-99859689D01*
X155826189Y-100041678D01*
X155716751Y-100205463D01*
X155577463Y-100344751D01*
X155413678Y-100454189D01*
X155231689Y-100529571D01*
X155115770Y-100552628D01*
X155038493Y-100568000D01*
X154841507Y-100568000D01*
X154764230Y-100552628D01*
X154648311Y-100529571D01*
X154466322Y-100454189D01*
X154302537Y-100344751D01*
X154163249Y-100205463D01*
X154053811Y-100041678D01*
X153978429Y-99859689D01*
X153940000Y-99666491D01*
X153940000Y-99469509D01*
X153978429Y-99276311D01*
X154053811Y-99094322D01*
X154163249Y-98930537D01*
X154302537Y-98791249D01*
X154466322Y-98681811D01*
X154648311Y-98606429D01*
X154764230Y-98583372D01*
X154841507Y-98568000D01*
X155038493Y-98568000D01*
X155115770Y-98583372D01*
X155115770Y-98583372D01*
G37*
G36*
X160195770Y-98583372D02*
X160311689Y-98606429D01*
X160493678Y-98681811D01*
X160657463Y-98791249D01*
X160796751Y-98930537D01*
X160906189Y-99094322D01*
X160981571Y-99276311D01*
X161020000Y-99469509D01*
X161020000Y-99666491D01*
X160981571Y-99859689D01*
X160906189Y-100041678D01*
X160796751Y-100205463D01*
X160657463Y-100344751D01*
X160493678Y-100454189D01*
X160311689Y-100529571D01*
X160195770Y-100552628D01*
X160118493Y-100568000D01*
X159921507Y-100568000D01*
X159844230Y-100552628D01*
X159728311Y-100529571D01*
X159546322Y-100454189D01*
X159382537Y-100344751D01*
X159243249Y-100205463D01*
X159133811Y-100041678D01*
X159058429Y-99859689D01*
X159020000Y-99666491D01*
X159020000Y-99469509D01*
X159058429Y-99276311D01*
X159133811Y-99094322D01*
X159243249Y-98930537D01*
X159382537Y-98791249D01*
X159546322Y-98681811D01*
X159728311Y-98606429D01*
X159844230Y-98583372D01*
X159921507Y-98568000D01*
X160118493Y-98568000D01*
X160195770Y-98583372D01*
X160195770Y-98583372D01*
G37*
G36*
X170355770Y-98583372D02*
X170471689Y-98606429D01*
X170653678Y-98681811D01*
X170817463Y-98791249D01*
X170956751Y-98930537D01*
X171066189Y-99094322D01*
X171141571Y-99276311D01*
X171180000Y-99469509D01*
X171180000Y-99666491D01*
X171141571Y-99859689D01*
X171066189Y-100041678D01*
X170956751Y-100205463D01*
X170817463Y-100344751D01*
X170653678Y-100454189D01*
X170471689Y-100529571D01*
X170355770Y-100552628D01*
X170278493Y-100568000D01*
X170081507Y-100568000D01*
X170004230Y-100552628D01*
X169888311Y-100529571D01*
X169706322Y-100454189D01*
X169542537Y-100344751D01*
X169403249Y-100205463D01*
X169293811Y-100041678D01*
X169218429Y-99859689D01*
X169180000Y-99666491D01*
X169180000Y-99469509D01*
X169218429Y-99276311D01*
X169293811Y-99094322D01*
X169403249Y-98930537D01*
X169542537Y-98791249D01*
X169706322Y-98681811D01*
X169888311Y-98606429D01*
X170004230Y-98583372D01*
X170081507Y-98568000D01*
X170278493Y-98568000D01*
X170355770Y-98583372D01*
X170355770Y-98583372D01*
G37*
G36*
X167815770Y-98583372D02*
X167931689Y-98606429D01*
X168113678Y-98681811D01*
X168277463Y-98791249D01*
X168416751Y-98930537D01*
X168526189Y-99094322D01*
X168601571Y-99276311D01*
X168640000Y-99469509D01*
X168640000Y-99666491D01*
X168601571Y-99859689D01*
X168526189Y-100041678D01*
X168416751Y-100205463D01*
X168277463Y-100344751D01*
X168113678Y-100454189D01*
X167931689Y-100529571D01*
X167815770Y-100552628D01*
X167738493Y-100568000D01*
X167541507Y-100568000D01*
X167464230Y-100552628D01*
X167348311Y-100529571D01*
X167166322Y-100454189D01*
X167002537Y-100344751D01*
X166863249Y-100205463D01*
X166753811Y-100041678D01*
X166678429Y-99859689D01*
X166640000Y-99666491D01*
X166640000Y-99469509D01*
X166678429Y-99276311D01*
X166753811Y-99094322D01*
X166863249Y-98930537D01*
X167002537Y-98791249D01*
X167166322Y-98681811D01*
X167348311Y-98606429D01*
X167464230Y-98583372D01*
X167541507Y-98568000D01*
X167738493Y-98568000D01*
X167815770Y-98583372D01*
X167815770Y-98583372D01*
G37*
G36*
X165275770Y-98583372D02*
X165391689Y-98606429D01*
X165573678Y-98681811D01*
X165737463Y-98791249D01*
X165876751Y-98930537D01*
X165986189Y-99094322D01*
X166061571Y-99276311D01*
X166100000Y-99469509D01*
X166100000Y-99666491D01*
X166061571Y-99859689D01*
X165986189Y-100041678D01*
X165876751Y-100205463D01*
X165737463Y-100344751D01*
X165573678Y-100454189D01*
X165391689Y-100529571D01*
X165275770Y-100552628D01*
X165198493Y-100568000D01*
X165001507Y-100568000D01*
X164924230Y-100552628D01*
X164808311Y-100529571D01*
X164626322Y-100454189D01*
X164462537Y-100344751D01*
X164323249Y-100205463D01*
X164213811Y-100041678D01*
X164138429Y-99859689D01*
X164100000Y-99666491D01*
X164100000Y-99469509D01*
X164138429Y-99276311D01*
X164213811Y-99094322D01*
X164323249Y-98930537D01*
X164462537Y-98791249D01*
X164626322Y-98681811D01*
X164808311Y-98606429D01*
X164924230Y-98583372D01*
X165001507Y-98568000D01*
X165198493Y-98568000D01*
X165275770Y-98583372D01*
X165275770Y-98583372D01*
G37*
G36*
X162735770Y-98583372D02*
X162851689Y-98606429D01*
X163033678Y-98681811D01*
X163197463Y-98791249D01*
X163336751Y-98930537D01*
X163446189Y-99094322D01*
X163521571Y-99276311D01*
X163560000Y-99469509D01*
X163560000Y-99666491D01*
X163521571Y-99859689D01*
X163446189Y-100041678D01*
X163336751Y-100205463D01*
X163197463Y-100344751D01*
X163033678Y-100454189D01*
X162851689Y-100529571D01*
X162735770Y-100552628D01*
X162658493Y-100568000D01*
X162461507Y-100568000D01*
X162384230Y-100552628D01*
X162268311Y-100529571D01*
X162086322Y-100454189D01*
X161922537Y-100344751D01*
X161783249Y-100205463D01*
X161673811Y-100041678D01*
X161598429Y-99859689D01*
X161560000Y-99666491D01*
X161560000Y-99469509D01*
X161598429Y-99276311D01*
X161673811Y-99094322D01*
X161783249Y-98930537D01*
X161922537Y-98791249D01*
X162086322Y-98681811D01*
X162268311Y-98606429D01*
X162384230Y-98583372D01*
X162461507Y-98568000D01*
X162658493Y-98568000D01*
X162735770Y-98583372D01*
X162735770Y-98583372D01*
G37*
G36*
X157655770Y-98583372D02*
X157771689Y-98606429D01*
X157953678Y-98681811D01*
X158117463Y-98791249D01*
X158256751Y-98930537D01*
X158366189Y-99094322D01*
X158441571Y-99276311D01*
X158480000Y-99469509D01*
X158480000Y-99666491D01*
X158441571Y-99859689D01*
X158366189Y-100041678D01*
X158256751Y-100205463D01*
X158117463Y-100344751D01*
X157953678Y-100454189D01*
X157771689Y-100529571D01*
X157655770Y-100552628D01*
X157578493Y-100568000D01*
X157381507Y-100568000D01*
X157304230Y-100552628D01*
X157188311Y-100529571D01*
X157006322Y-100454189D01*
X156842537Y-100344751D01*
X156703249Y-100205463D01*
X156593811Y-100041678D01*
X156518429Y-99859689D01*
X156480000Y-99666491D01*
X156480000Y-99469509D01*
X156518429Y-99276311D01*
X156593811Y-99094322D01*
X156703249Y-98930537D01*
X156842537Y-98791249D01*
X157006322Y-98681811D01*
X157188311Y-98606429D01*
X157304230Y-98583372D01*
X157381507Y-98568000D01*
X157578493Y-98568000D01*
X157655770Y-98583372D01*
X157655770Y-98583372D01*
G37*
G36*
X172895770Y-98583372D02*
X173011689Y-98606429D01*
X173193678Y-98681811D01*
X173357463Y-98791249D01*
X173496751Y-98930537D01*
X173606189Y-99094322D01*
X173681571Y-99276311D01*
X173720000Y-99469509D01*
X173720000Y-99666491D01*
X173681571Y-99859689D01*
X173606189Y-100041678D01*
X173496751Y-100205463D01*
X173357463Y-100344751D01*
X173193678Y-100454189D01*
X173011689Y-100529571D01*
X172895770Y-100552628D01*
X172818493Y-100568000D01*
X172621507Y-100568000D01*
X172544230Y-100552628D01*
X172428311Y-100529571D01*
X172246322Y-100454189D01*
X172082537Y-100344751D01*
X171943249Y-100205463D01*
X171833811Y-100041678D01*
X171758429Y-99859689D01*
X171720000Y-99666491D01*
X171720000Y-99469509D01*
X171758429Y-99276311D01*
X171833811Y-99094322D01*
X171943249Y-98930537D01*
X172082537Y-98791249D01*
X172246322Y-98681811D01*
X172428311Y-98606429D01*
X172544230Y-98583372D01*
X172621507Y-98568000D01*
X172818493Y-98568000D01*
X172895770Y-98583372D01*
X172895770Y-98583372D01*
G37*
G36*
X170355770Y-96043372D02*
X170471689Y-96066429D01*
X170653678Y-96141811D01*
X170817463Y-96251249D01*
X170956751Y-96390537D01*
X171066189Y-96554322D01*
X171141571Y-96736311D01*
X171180000Y-96929509D01*
X171180000Y-97126491D01*
X171141571Y-97319689D01*
X171066189Y-97501678D01*
X170956751Y-97665463D01*
X170817463Y-97804751D01*
X170653678Y-97914189D01*
X170471689Y-97989571D01*
X170355770Y-98012628D01*
X170278493Y-98028000D01*
X170081507Y-98028000D01*
X170004230Y-98012628D01*
X169888311Y-97989571D01*
X169706322Y-97914189D01*
X169542537Y-97804751D01*
X169403249Y-97665463D01*
X169293811Y-97501678D01*
X169218429Y-97319689D01*
X169180000Y-97126491D01*
X169180000Y-96929509D01*
X169218429Y-96736311D01*
X169293811Y-96554322D01*
X169403249Y-96390537D01*
X169542537Y-96251249D01*
X169706322Y-96141811D01*
X169888311Y-96066429D01*
X170004230Y-96043372D01*
X170081507Y-96028000D01*
X170278493Y-96028000D01*
X170355770Y-96043372D01*
X170355770Y-96043372D01*
G37*
G36*
X157655770Y-96043372D02*
X157771689Y-96066429D01*
X157953678Y-96141811D01*
X158117463Y-96251249D01*
X158256751Y-96390537D01*
X158366189Y-96554322D01*
X158441571Y-96736311D01*
X158480000Y-96929509D01*
X158480000Y-97126491D01*
X158441571Y-97319689D01*
X158366189Y-97501678D01*
X158256751Y-97665463D01*
X158117463Y-97804751D01*
X157953678Y-97914189D01*
X157771689Y-97989571D01*
X157655770Y-98012628D01*
X157578493Y-98028000D01*
X157381507Y-98028000D01*
X157304230Y-98012628D01*
X157188311Y-97989571D01*
X157006322Y-97914189D01*
X156842537Y-97804751D01*
X156703249Y-97665463D01*
X156593811Y-97501678D01*
X156518429Y-97319689D01*
X156480000Y-97126491D01*
X156480000Y-96929509D01*
X156518429Y-96736311D01*
X156593811Y-96554322D01*
X156703249Y-96390537D01*
X156842537Y-96251249D01*
X157006322Y-96141811D01*
X157188311Y-96066429D01*
X157304230Y-96043372D01*
X157381507Y-96028000D01*
X157578493Y-96028000D01*
X157655770Y-96043372D01*
X157655770Y-96043372D01*
G37*
G36*
X155115770Y-96043372D02*
X155231689Y-96066429D01*
X155413678Y-96141811D01*
X155577463Y-96251249D01*
X155716751Y-96390537D01*
X155826189Y-96554322D01*
X155901571Y-96736311D01*
X155940000Y-96929509D01*
X155940000Y-97126491D01*
X155901571Y-97319689D01*
X155826189Y-97501678D01*
X155716751Y-97665463D01*
X155577463Y-97804751D01*
X155413678Y-97914189D01*
X155231689Y-97989571D01*
X155115770Y-98012628D01*
X155038493Y-98028000D01*
X154841507Y-98028000D01*
X154764230Y-98012628D01*
X154648311Y-97989571D01*
X154466322Y-97914189D01*
X154302537Y-97804751D01*
X154163249Y-97665463D01*
X154053811Y-97501678D01*
X153978429Y-97319689D01*
X153940000Y-97126491D01*
X153940000Y-96929509D01*
X153978429Y-96736311D01*
X154053811Y-96554322D01*
X154163249Y-96390537D01*
X154302537Y-96251249D01*
X154466322Y-96141811D01*
X154648311Y-96066429D01*
X154764230Y-96043372D01*
X154841507Y-96028000D01*
X155038493Y-96028000D01*
X155115770Y-96043372D01*
X155115770Y-96043372D01*
G37*
G36*
X147495770Y-96043372D02*
X147611689Y-96066429D01*
X147793678Y-96141811D01*
X147957463Y-96251249D01*
X148096751Y-96390537D01*
X148206189Y-96554322D01*
X148281571Y-96736311D01*
X148320000Y-96929509D01*
X148320000Y-97126491D01*
X148281571Y-97319689D01*
X148206189Y-97501678D01*
X148096751Y-97665463D01*
X147957463Y-97804751D01*
X147793678Y-97914189D01*
X147611689Y-97989571D01*
X147495770Y-98012628D01*
X147418493Y-98028000D01*
X147221507Y-98028000D01*
X147144230Y-98012628D01*
X147028311Y-97989571D01*
X146846322Y-97914189D01*
X146682537Y-97804751D01*
X146543249Y-97665463D01*
X146433811Y-97501678D01*
X146358429Y-97319689D01*
X146320000Y-97126491D01*
X146320000Y-96929509D01*
X146358429Y-96736311D01*
X146433811Y-96554322D01*
X146543249Y-96390537D01*
X146682537Y-96251249D01*
X146846322Y-96141811D01*
X147028311Y-96066429D01*
X147144230Y-96043372D01*
X147221507Y-96028000D01*
X147418493Y-96028000D01*
X147495770Y-96043372D01*
X147495770Y-96043372D01*
G37*
G36*
X152575770Y-96043372D02*
X152691689Y-96066429D01*
X152873678Y-96141811D01*
X153037463Y-96251249D01*
X153176751Y-96390537D01*
X153286189Y-96554322D01*
X153361571Y-96736311D01*
X153400000Y-96929509D01*
X153400000Y-97126491D01*
X153361571Y-97319689D01*
X153286189Y-97501678D01*
X153176751Y-97665463D01*
X153037463Y-97804751D01*
X152873678Y-97914189D01*
X152691689Y-97989571D01*
X152575770Y-98012628D01*
X152498493Y-98028000D01*
X152301507Y-98028000D01*
X152224230Y-98012628D01*
X152108311Y-97989571D01*
X151926322Y-97914189D01*
X151762537Y-97804751D01*
X151623249Y-97665463D01*
X151513811Y-97501678D01*
X151438429Y-97319689D01*
X151400000Y-97126491D01*
X151400000Y-96929509D01*
X151438429Y-96736311D01*
X151513811Y-96554322D01*
X151623249Y-96390537D01*
X151762537Y-96251249D01*
X151926322Y-96141811D01*
X152108311Y-96066429D01*
X152224230Y-96043372D01*
X152301507Y-96028000D01*
X152498493Y-96028000D01*
X152575770Y-96043372D01*
X152575770Y-96043372D01*
G37*
G36*
X160195770Y-96043372D02*
X160311689Y-96066429D01*
X160493678Y-96141811D01*
X160657463Y-96251249D01*
X160796751Y-96390537D01*
X160906189Y-96554322D01*
X160981571Y-96736311D01*
X161020000Y-96929509D01*
X161020000Y-97126491D01*
X160981571Y-97319689D01*
X160906189Y-97501678D01*
X160796751Y-97665463D01*
X160657463Y-97804751D01*
X160493678Y-97914189D01*
X160311689Y-97989571D01*
X160195770Y-98012628D01*
X160118493Y-98028000D01*
X159921507Y-98028000D01*
X159844230Y-98012628D01*
X159728311Y-97989571D01*
X159546322Y-97914189D01*
X159382537Y-97804751D01*
X159243249Y-97665463D01*
X159133811Y-97501678D01*
X159058429Y-97319689D01*
X159020000Y-97126491D01*
X159020000Y-96929509D01*
X159058429Y-96736311D01*
X159133811Y-96554322D01*
X159243249Y-96390537D01*
X159382537Y-96251249D01*
X159546322Y-96141811D01*
X159728311Y-96066429D01*
X159844230Y-96043372D01*
X159921507Y-96028000D01*
X160118493Y-96028000D01*
X160195770Y-96043372D01*
X160195770Y-96043372D01*
G37*
G36*
X162735770Y-96043372D02*
X162851689Y-96066429D01*
X163033678Y-96141811D01*
X163197463Y-96251249D01*
X163336751Y-96390537D01*
X163446189Y-96554322D01*
X163521571Y-96736311D01*
X163560000Y-96929509D01*
X163560000Y-97126491D01*
X163521571Y-97319689D01*
X163446189Y-97501678D01*
X163336751Y-97665463D01*
X163197463Y-97804751D01*
X163033678Y-97914189D01*
X162851689Y-97989571D01*
X162735770Y-98012628D01*
X162658493Y-98028000D01*
X162461507Y-98028000D01*
X162384230Y-98012628D01*
X162268311Y-97989571D01*
X162086322Y-97914189D01*
X161922537Y-97804751D01*
X161783249Y-97665463D01*
X161673811Y-97501678D01*
X161598429Y-97319689D01*
X161560000Y-97126491D01*
X161560000Y-96929509D01*
X161598429Y-96736311D01*
X161673811Y-96554322D01*
X161783249Y-96390537D01*
X161922537Y-96251249D01*
X162086322Y-96141811D01*
X162268311Y-96066429D01*
X162384230Y-96043372D01*
X162461507Y-96028000D01*
X162658493Y-96028000D01*
X162735770Y-96043372D01*
X162735770Y-96043372D01*
G37*
G36*
X165275770Y-96043372D02*
X165391689Y-96066429D01*
X165573678Y-96141811D01*
X165737463Y-96251249D01*
X165876751Y-96390537D01*
X165986189Y-96554322D01*
X166061571Y-96736311D01*
X166100000Y-96929509D01*
X166100000Y-97126491D01*
X166061571Y-97319689D01*
X165986189Y-97501678D01*
X165876751Y-97665463D01*
X165737463Y-97804751D01*
X165573678Y-97914189D01*
X165391689Y-97989571D01*
X165275770Y-98012628D01*
X165198493Y-98028000D01*
X165001507Y-98028000D01*
X164924230Y-98012628D01*
X164808311Y-97989571D01*
X164626322Y-97914189D01*
X164462537Y-97804751D01*
X164323249Y-97665463D01*
X164213811Y-97501678D01*
X164138429Y-97319689D01*
X164100000Y-97126491D01*
X164100000Y-96929509D01*
X164138429Y-96736311D01*
X164213811Y-96554322D01*
X164323249Y-96390537D01*
X164462537Y-96251249D01*
X164626322Y-96141811D01*
X164808311Y-96066429D01*
X164924230Y-96043372D01*
X165001507Y-96028000D01*
X165198493Y-96028000D01*
X165275770Y-96043372D01*
X165275770Y-96043372D01*
G37*
G36*
X167815770Y-96043372D02*
X167931689Y-96066429D01*
X168113678Y-96141811D01*
X168277463Y-96251249D01*
X168416751Y-96390537D01*
X168526189Y-96554322D01*
X168601571Y-96736311D01*
X168640000Y-96929509D01*
X168640000Y-97126491D01*
X168601571Y-97319689D01*
X168526189Y-97501678D01*
X168416751Y-97665463D01*
X168277463Y-97804751D01*
X168113678Y-97914189D01*
X167931689Y-97989571D01*
X167815770Y-98012628D01*
X167738493Y-98028000D01*
X167541507Y-98028000D01*
X167464230Y-98012628D01*
X167348311Y-97989571D01*
X167166322Y-97914189D01*
X167002537Y-97804751D01*
X166863249Y-97665463D01*
X166753811Y-97501678D01*
X166678429Y-97319689D01*
X166640000Y-97126491D01*
X166640000Y-96929509D01*
X166678429Y-96736311D01*
X166753811Y-96554322D01*
X166863249Y-96390537D01*
X167002537Y-96251249D01*
X167166322Y-96141811D01*
X167348311Y-96066429D01*
X167464230Y-96043372D01*
X167541507Y-96028000D01*
X167738493Y-96028000D01*
X167815770Y-96043372D01*
X167815770Y-96043372D01*
G37*
G36*
X172895770Y-96043372D02*
X173011689Y-96066429D01*
X173193678Y-96141811D01*
X173357463Y-96251249D01*
X173496751Y-96390537D01*
X173606189Y-96554322D01*
X173681571Y-96736311D01*
X173720000Y-96929509D01*
X173720000Y-97126491D01*
X173681571Y-97319689D01*
X173606189Y-97501678D01*
X173496751Y-97665463D01*
X173357463Y-97804751D01*
X173193678Y-97914189D01*
X173011689Y-97989571D01*
X172895770Y-98012628D01*
X172818493Y-98028000D01*
X172621507Y-98028000D01*
X172544230Y-98012628D01*
X172428311Y-97989571D01*
X172246322Y-97914189D01*
X172082537Y-97804751D01*
X171943249Y-97665463D01*
X171833811Y-97501678D01*
X171758429Y-97319689D01*
X171720000Y-97126491D01*
X171720000Y-96929509D01*
X171758429Y-96736311D01*
X171833811Y-96554322D01*
X171943249Y-96390537D01*
X172082537Y-96251249D01*
X172246322Y-96141811D01*
X172428311Y-96066429D01*
X172544230Y-96043372D01*
X172621507Y-96028000D01*
X172818493Y-96028000D01*
X172895770Y-96043372D01*
X172895770Y-96043372D01*
G37*
G36*
X175435770Y-96043372D02*
X175551689Y-96066429D01*
X175733678Y-96141811D01*
X175897463Y-96251249D01*
X176036751Y-96390537D01*
X176146189Y-96554322D01*
X176221571Y-96736311D01*
X176260000Y-96929509D01*
X176260000Y-97126491D01*
X176221571Y-97319689D01*
X176146189Y-97501678D01*
X176036751Y-97665463D01*
X175897463Y-97804751D01*
X175733678Y-97914189D01*
X175551689Y-97989571D01*
X175435770Y-98012628D01*
X175358493Y-98028000D01*
X175161507Y-98028000D01*
X175084230Y-98012628D01*
X174968311Y-97989571D01*
X174786322Y-97914189D01*
X174622537Y-97804751D01*
X174483249Y-97665463D01*
X174373811Y-97501678D01*
X174298429Y-97319689D01*
X174260000Y-97126491D01*
X174260000Y-96929509D01*
X174298429Y-96736311D01*
X174373811Y-96554322D01*
X174483249Y-96390537D01*
X174622537Y-96251249D01*
X174786322Y-96141811D01*
X174968311Y-96066429D01*
X175084230Y-96043372D01*
X175161507Y-96028000D01*
X175358493Y-96028000D01*
X175435770Y-96043372D01*
X175435770Y-96043372D01*
G37*
G36*
X177975770Y-96043372D02*
X178091689Y-96066429D01*
X178273678Y-96141811D01*
X178437463Y-96251249D01*
X178576751Y-96390537D01*
X178686189Y-96554322D01*
X178761571Y-96736311D01*
X178800000Y-96929509D01*
X178800000Y-97126491D01*
X178761571Y-97319689D01*
X178686189Y-97501678D01*
X178576751Y-97665463D01*
X178437463Y-97804751D01*
X178273678Y-97914189D01*
X178091689Y-97989571D01*
X177975770Y-98012628D01*
X177898493Y-98028000D01*
X177701507Y-98028000D01*
X177624230Y-98012628D01*
X177508311Y-97989571D01*
X177326322Y-97914189D01*
X177162537Y-97804751D01*
X177023249Y-97665463D01*
X176913811Y-97501678D01*
X176838429Y-97319689D01*
X176800000Y-97126491D01*
X176800000Y-96929509D01*
X176838429Y-96736311D01*
X176913811Y-96554322D01*
X177023249Y-96390537D01*
X177162537Y-96251249D01*
X177326322Y-96141811D01*
X177508311Y-96066429D01*
X177624230Y-96043372D01*
X177701507Y-96028000D01*
X177898493Y-96028000D01*
X177975770Y-96043372D01*
X177975770Y-96043372D01*
G37*
G36*
X150035770Y-96043372D02*
X150151689Y-96066429D01*
X150333678Y-96141811D01*
X150497463Y-96251249D01*
X150636751Y-96390537D01*
X150746189Y-96554322D01*
X150821571Y-96736311D01*
X150860000Y-96929509D01*
X150860000Y-97126491D01*
X150821571Y-97319689D01*
X150746189Y-97501678D01*
X150636751Y-97665463D01*
X150497463Y-97804751D01*
X150333678Y-97914189D01*
X150151689Y-97989571D01*
X150035770Y-98012628D01*
X149958493Y-98028000D01*
X149761507Y-98028000D01*
X149684230Y-98012628D01*
X149568311Y-97989571D01*
X149386322Y-97914189D01*
X149222537Y-97804751D01*
X149083249Y-97665463D01*
X148973811Y-97501678D01*
X148898429Y-97319689D01*
X148860000Y-97126491D01*
X148860000Y-96929509D01*
X148898429Y-96736311D01*
X148973811Y-96554322D01*
X149083249Y-96390537D01*
X149222537Y-96251249D01*
X149386322Y-96141811D01*
X149568311Y-96066429D01*
X149684230Y-96043372D01*
X149761507Y-96028000D01*
X149958493Y-96028000D01*
X150035770Y-96043372D01*
X150035770Y-96043372D01*
G37*
G36*
X126604270Y-88740872D02*
X126720189Y-88763929D01*
X126902178Y-88839311D01*
X127065963Y-88948749D01*
X127205251Y-89088037D01*
X127314689Y-89251822D01*
X127329018Y-89286416D01*
X127340566Y-89308021D01*
X127356112Y-89326963D01*
X127375054Y-89342509D01*
X127396664Y-89354060D01*
X127420114Y-89361173D01*
X127444500Y-89363575D01*
X127468886Y-89361173D01*
X127492335Y-89354060D01*
X127513946Y-89342509D01*
X127532888Y-89326963D01*
X127548434Y-89308021D01*
X127559982Y-89286416D01*
X127574311Y-89251822D01*
X127683749Y-89088037D01*
X127823037Y-88948749D01*
X127986822Y-88839311D01*
X128168811Y-88763929D01*
X128284730Y-88740872D01*
X128362007Y-88725500D01*
X128558993Y-88725500D01*
X128636270Y-88740872D01*
X128752189Y-88763929D01*
X128934178Y-88839311D01*
X129097963Y-88948749D01*
X129237251Y-89088037D01*
X129346689Y-89251822D01*
X129422071Y-89433811D01*
X129460500Y-89627009D01*
X129460500Y-89823991D01*
X129422071Y-90017189D01*
X129346689Y-90199178D01*
X129237251Y-90362963D01*
X129097963Y-90502251D01*
X128934178Y-90611689D01*
X128752189Y-90687071D01*
X128636270Y-90710128D01*
X128558993Y-90725500D01*
X128362007Y-90725500D01*
X128284730Y-90710128D01*
X128168811Y-90687071D01*
X127986822Y-90611689D01*
X127823037Y-90502251D01*
X127683749Y-90362963D01*
X127574311Y-90199178D01*
X127559982Y-90164584D01*
X127548434Y-90142979D01*
X127532888Y-90124037D01*
X127513946Y-90108491D01*
X127492336Y-90096940D01*
X127468886Y-90089827D01*
X127444500Y-90087425D01*
X127420114Y-90089827D01*
X127396665Y-90096940D01*
X127375054Y-90108491D01*
X127356112Y-90124037D01*
X127340566Y-90142979D01*
X127329018Y-90164584D01*
X127314689Y-90199178D01*
X127205251Y-90362963D01*
X127065963Y-90502251D01*
X126902178Y-90611689D01*
X126720189Y-90687071D01*
X126604270Y-90710128D01*
X126526993Y-90725500D01*
X126330007Y-90725500D01*
X126252730Y-90710128D01*
X126136811Y-90687071D01*
X125954822Y-90611689D01*
X125791037Y-90502251D01*
X125651749Y-90362963D01*
X125542311Y-90199178D01*
X125466929Y-90017189D01*
X125428500Y-89823991D01*
X125428500Y-89627009D01*
X125466929Y-89433811D01*
X125542311Y-89251822D01*
X125651749Y-89088037D01*
X125791037Y-88948749D01*
X125954822Y-88839311D01*
X126136811Y-88763929D01*
X126252730Y-88740872D01*
X126330007Y-88725500D01*
X126526993Y-88725500D01*
X126604270Y-88740872D01*
X126604270Y-88740872D01*
G37*
G36*
X111752149Y-83797217D02*
X111791327Y-83801076D01*
X111866728Y-83823949D01*
X111942129Y-83846821D01*
X112081108Y-83921108D01*
X112202922Y-84021078D01*
X112302892Y-84142892D01*
X112377179Y-84281871D01*
X112422924Y-84432674D01*
X112438370Y-84589500D01*
X112422924Y-84746326D01*
X112377179Y-84897129D01*
X112302892Y-85036108D01*
X112202922Y-85157922D01*
X112081108Y-85257892D01*
X111942129Y-85332179D01*
X111866728Y-85355051D01*
X111791327Y-85377924D01*
X111752149Y-85381783D01*
X111673795Y-85389500D01*
X110895205Y-85389500D01*
X110816851Y-85381783D01*
X110777673Y-85377924D01*
X110702272Y-85355051D01*
X110626871Y-85332179D01*
X110487892Y-85257892D01*
X110366078Y-85157922D01*
X110266108Y-85036108D01*
X110191821Y-84897129D01*
X110146076Y-84746326D01*
X110130630Y-84589500D01*
X110146076Y-84432674D01*
X110191821Y-84281871D01*
X110266108Y-84142892D01*
X110366078Y-84021078D01*
X110487892Y-83921108D01*
X110626871Y-83846821D01*
X110702272Y-83823949D01*
X110777673Y-83801076D01*
X110816851Y-83797217D01*
X110895205Y-83789500D01*
X111673795Y-83789500D01*
X111752149Y-83797217D01*
X111752149Y-83797217D01*
G37*
G36*
X114254311Y-82700046D02*
X114254314Y-82700047D01*
X114254313Y-82700047D01*
X114422652Y-82769775D01*
X114422653Y-82769776D01*
X114574156Y-82871007D01*
X114702993Y-82999844D01*
X114702995Y-82999847D01*
X114804225Y-83151348D01*
X114858157Y-83281552D01*
X114873954Y-83319689D01*
X114909500Y-83498394D01*
X114909500Y-83680606D01*
X114873954Y-83859311D01*
X114873953Y-83859313D01*
X114804225Y-84027652D01*
X114704360Y-84177111D01*
X114702993Y-84179156D01*
X114574156Y-84307993D01*
X114574153Y-84307995D01*
X114422652Y-84409225D01*
X114292448Y-84463157D01*
X114254311Y-84478954D01*
X114075606Y-84514500D01*
X113893394Y-84514500D01*
X113714689Y-84478954D01*
X113676552Y-84463157D01*
X113546348Y-84409225D01*
X113394847Y-84307995D01*
X113394844Y-84307993D01*
X113266007Y-84179156D01*
X113264640Y-84177111D01*
X113164775Y-84027652D01*
X113095047Y-83859313D01*
X113095046Y-83859311D01*
X113059500Y-83680606D01*
X113059500Y-83498394D01*
X113095046Y-83319689D01*
X113110843Y-83281552D01*
X113164775Y-83151348D01*
X113266005Y-82999847D01*
X113266007Y-82999844D01*
X113394844Y-82871007D01*
X113546347Y-82769776D01*
X113546348Y-82769775D01*
X113714687Y-82700047D01*
X113714686Y-82700047D01*
X113714689Y-82700046D01*
X113893394Y-82664500D01*
X114075606Y-82664500D01*
X114254311Y-82700046D01*
X114254311Y-82700046D01*
G37*
G36*
X114254311Y-77700046D02*
X114254314Y-77700047D01*
X114254313Y-77700047D01*
X114422652Y-77769775D01*
X114422653Y-77769776D01*
X114574156Y-77871007D01*
X114702993Y-77999844D01*
X114702995Y-77999847D01*
X114804225Y-78151348D01*
X114848357Y-78257892D01*
X114873954Y-78319689D01*
X114909500Y-78498394D01*
X114909500Y-78680606D01*
X114873954Y-78859311D01*
X114873953Y-78859313D01*
X114804225Y-79027652D01*
X114804224Y-79027653D01*
X114702993Y-79179156D01*
X114574156Y-79307993D01*
X114574153Y-79307995D01*
X114422652Y-79409225D01*
X114292448Y-79463157D01*
X114254311Y-79478954D01*
X114075606Y-79514500D01*
X113893394Y-79514500D01*
X113714689Y-79478954D01*
X113676552Y-79463157D01*
X113546348Y-79409225D01*
X113394847Y-79307995D01*
X113394844Y-79307993D01*
X113266007Y-79179156D01*
X113164776Y-79027653D01*
X113164775Y-79027652D01*
X113095047Y-78859313D01*
X113095046Y-78859311D01*
X113059500Y-78680606D01*
X113059500Y-78498394D01*
X113095046Y-78319689D01*
X113120643Y-78257892D01*
X113164775Y-78151348D01*
X113266005Y-77999847D01*
X113266007Y-77999844D01*
X113394844Y-77871007D01*
X113546347Y-77769776D01*
X113546348Y-77769775D01*
X113714687Y-77700047D01*
X113714686Y-77700047D01*
X113714689Y-77700046D01*
X113893394Y-77664500D01*
X114075606Y-77664500D01*
X114254311Y-77700046D01*
X114254311Y-77700046D01*
G37*
G36*
X111752149Y-76797217D02*
X111791327Y-76801076D01*
X111866727Y-76823948D01*
X111942129Y-76846821D01*
X112081108Y-76921108D01*
X112202922Y-77021078D01*
X112302892Y-77142892D01*
X112377179Y-77281871D01*
X112422924Y-77432674D01*
X112438370Y-77589500D01*
X112422924Y-77746326D01*
X112377179Y-77897129D01*
X112302892Y-78036108D01*
X112202922Y-78157922D01*
X112081108Y-78257892D01*
X111942129Y-78332179D01*
X111866727Y-78355052D01*
X111791327Y-78377924D01*
X111752149Y-78381783D01*
X111673795Y-78389500D01*
X110895205Y-78389500D01*
X110816851Y-78381783D01*
X110777673Y-78377924D01*
X110702273Y-78355052D01*
X110626871Y-78332179D01*
X110487892Y-78257892D01*
X110366078Y-78157922D01*
X110266108Y-78036108D01*
X110191821Y-77897129D01*
X110146076Y-77746326D01*
X110130630Y-77589500D01*
X110146076Y-77432674D01*
X110191821Y-77281871D01*
X110266108Y-77142892D01*
X110366078Y-77021078D01*
X110487892Y-76921108D01*
X110626871Y-76846821D01*
X110702273Y-76823948D01*
X110777673Y-76801076D01*
X110816851Y-76797217D01*
X110895205Y-76789500D01*
X111673795Y-76789500D01*
X111752149Y-76797217D01*
X111752149Y-76797217D01*
G37*
G36*
X128636270Y-71468872D02*
X128752189Y-71491929D01*
X128934178Y-71567311D01*
X129097963Y-71676749D01*
X129237251Y-71816037D01*
X129346689Y-71979822D01*
X129422071Y-72161811D01*
X129460500Y-72355009D01*
X129460500Y-72551991D01*
X129422071Y-72745189D01*
X129346689Y-72927178D01*
X129237251Y-73090963D01*
X129097963Y-73230251D01*
X128934178Y-73339689D01*
X128752189Y-73415071D01*
X128636270Y-73438128D01*
X128558993Y-73453500D01*
X128362007Y-73453500D01*
X128284730Y-73438128D01*
X128168811Y-73415071D01*
X127986822Y-73339689D01*
X127823037Y-73230251D01*
X127683749Y-73090963D01*
X127574311Y-72927178D01*
X127498929Y-72745189D01*
X127460500Y-72551991D01*
X127460500Y-72355009D01*
X127498929Y-72161811D01*
X127574311Y-71979822D01*
X127683749Y-71816037D01*
X127823037Y-71676749D01*
X127986822Y-71567311D01*
X128168811Y-71491929D01*
X128284730Y-71468872D01*
X128362007Y-71453500D01*
X128558993Y-71453500D01*
X128636270Y-71468872D01*
X128636270Y-71468872D01*
G37*
G36*
X115936270Y-71468872D02*
X116052189Y-71491929D01*
X116234178Y-71567311D01*
X116397963Y-71676749D01*
X116537251Y-71816037D01*
X116646689Y-71979822D01*
X116722071Y-72161811D01*
X116760500Y-72355009D01*
X116760500Y-72551991D01*
X116722071Y-72745189D01*
X116646689Y-72927178D01*
X116537251Y-73090963D01*
X116397963Y-73230251D01*
X116234178Y-73339689D01*
X116052189Y-73415071D01*
X115936270Y-73438128D01*
X115858993Y-73453500D01*
X115662007Y-73453500D01*
X115584730Y-73438128D01*
X115468811Y-73415071D01*
X115286822Y-73339689D01*
X115123037Y-73230251D01*
X114983749Y-73090963D01*
X114874311Y-72927178D01*
X114798929Y-72745189D01*
X114760500Y-72551991D01*
X114760500Y-72355009D01*
X114798929Y-72161811D01*
X114874311Y-71979822D01*
X114983749Y-71816037D01*
X115123037Y-71676749D01*
X115286822Y-71567311D01*
X115468811Y-71491929D01*
X115584730Y-71468872D01*
X115662007Y-71453500D01*
X115858993Y-71453500D01*
X115936270Y-71468872D01*
X115936270Y-71468872D01*
G37*
G36*
X118476270Y-71468872D02*
X118592189Y-71491929D01*
X118774178Y-71567311D01*
X118937963Y-71676749D01*
X119077251Y-71816037D01*
X119186689Y-71979822D01*
X119262071Y-72161811D01*
X119300500Y-72355009D01*
X119300500Y-72551991D01*
X119262071Y-72745189D01*
X119186689Y-72927178D01*
X119077251Y-73090963D01*
X118937963Y-73230251D01*
X118774178Y-73339689D01*
X118592189Y-73415071D01*
X118476270Y-73438128D01*
X118398993Y-73453500D01*
X118202007Y-73453500D01*
X118124730Y-73438128D01*
X118008811Y-73415071D01*
X117826822Y-73339689D01*
X117663037Y-73230251D01*
X117523749Y-73090963D01*
X117414311Y-72927178D01*
X117338929Y-72745189D01*
X117300500Y-72551991D01*
X117300500Y-72355009D01*
X117338929Y-72161811D01*
X117414311Y-71979822D01*
X117523749Y-71816037D01*
X117663037Y-71676749D01*
X117826822Y-71567311D01*
X118008811Y-71491929D01*
X118124730Y-71468872D01*
X118202007Y-71453500D01*
X118398993Y-71453500D01*
X118476270Y-71468872D01*
X118476270Y-71468872D01*
G37*
G36*
X121016270Y-71468872D02*
X121132189Y-71491929D01*
X121314178Y-71567311D01*
X121477963Y-71676749D01*
X121617251Y-71816037D01*
X121726689Y-71979822D01*
X121802071Y-72161811D01*
X121840500Y-72355009D01*
X121840500Y-72551991D01*
X121802071Y-72745189D01*
X121726689Y-72927178D01*
X121617251Y-73090963D01*
X121477963Y-73230251D01*
X121314178Y-73339689D01*
X121132189Y-73415071D01*
X121016270Y-73438128D01*
X120938993Y-73453500D01*
X120742007Y-73453500D01*
X120664730Y-73438128D01*
X120548811Y-73415071D01*
X120366822Y-73339689D01*
X120203037Y-73230251D01*
X120063749Y-73090963D01*
X119954311Y-72927178D01*
X119878929Y-72745189D01*
X119840500Y-72551991D01*
X119840500Y-72355009D01*
X119878929Y-72161811D01*
X119954311Y-71979822D01*
X120063749Y-71816037D01*
X120203037Y-71676749D01*
X120366822Y-71567311D01*
X120548811Y-71491929D01*
X120664730Y-71468872D01*
X120742007Y-71453500D01*
X120938993Y-71453500D01*
X121016270Y-71468872D01*
X121016270Y-71468872D01*
G37*
G36*
X131176270Y-71468872D02*
X131292189Y-71491929D01*
X131474178Y-71567311D01*
X131637963Y-71676749D01*
X131777251Y-71816037D01*
X131886689Y-71979822D01*
X131962071Y-72161811D01*
X132000500Y-72355009D01*
X132000500Y-72551991D01*
X131962071Y-72745189D01*
X131886689Y-72927178D01*
X131777251Y-73090963D01*
X131637963Y-73230251D01*
X131474178Y-73339689D01*
X131292189Y-73415071D01*
X131176270Y-73438128D01*
X131098993Y-73453500D01*
X130902007Y-73453500D01*
X130824730Y-73438128D01*
X130708811Y-73415071D01*
X130526822Y-73339689D01*
X130363037Y-73230251D01*
X130223749Y-73090963D01*
X130114311Y-72927178D01*
X130038929Y-72745189D01*
X130000500Y-72551991D01*
X130000500Y-72355009D01*
X130038929Y-72161811D01*
X130114311Y-71979822D01*
X130223749Y-71816037D01*
X130363037Y-71676749D01*
X130526822Y-71567311D01*
X130708811Y-71491929D01*
X130824730Y-71468872D01*
X130902007Y-71453500D01*
X131098993Y-71453500D01*
X131176270Y-71468872D01*
X131176270Y-71468872D01*
G37*
G36*
X126096270Y-71468872D02*
X126212189Y-71491929D01*
X126394178Y-71567311D01*
X126557963Y-71676749D01*
X126697251Y-71816037D01*
X126806689Y-71979822D01*
X126882071Y-72161811D01*
X126920500Y-72355009D01*
X126920500Y-72551991D01*
X126882071Y-72745189D01*
X126806689Y-72927178D01*
X126697251Y-73090963D01*
X126557963Y-73230251D01*
X126394178Y-73339689D01*
X126212189Y-73415071D01*
X126096270Y-73438128D01*
X126018993Y-73453500D01*
X125822007Y-73453500D01*
X125744730Y-73438128D01*
X125628811Y-73415071D01*
X125446822Y-73339689D01*
X125283037Y-73230251D01*
X125143749Y-73090963D01*
X125034311Y-72927178D01*
X124958929Y-72745189D01*
X124920500Y-72551991D01*
X124920500Y-72355009D01*
X124958929Y-72161811D01*
X125034311Y-71979822D01*
X125143749Y-71816037D01*
X125283037Y-71676749D01*
X125446822Y-71567311D01*
X125628811Y-71491929D01*
X125744730Y-71468872D01*
X125822007Y-71453500D01*
X126018993Y-71453500D01*
X126096270Y-71468872D01*
X126096270Y-71468872D01*
G37*
G36*
X123556270Y-71468872D02*
X123672189Y-71491929D01*
X123854178Y-71567311D01*
X124017963Y-71676749D01*
X124157251Y-71816037D01*
X124266689Y-71979822D01*
X124342071Y-72161811D01*
X124380500Y-72355009D01*
X124380500Y-72551991D01*
X124342071Y-72745189D01*
X124266689Y-72927178D01*
X124157251Y-73090963D01*
X124017963Y-73230251D01*
X123854178Y-73339689D01*
X123672189Y-73415071D01*
X123556270Y-73438128D01*
X123478993Y-73453500D01*
X123282007Y-73453500D01*
X123204730Y-73438128D01*
X123088811Y-73415071D01*
X122906822Y-73339689D01*
X122743037Y-73230251D01*
X122603749Y-73090963D01*
X122494311Y-72927178D01*
X122418929Y-72745189D01*
X122380500Y-72551991D01*
X122380500Y-72355009D01*
X122418929Y-72161811D01*
X122494311Y-71979822D01*
X122603749Y-71816037D01*
X122743037Y-71676749D01*
X122906822Y-71567311D01*
X123088811Y-71491929D01*
X123204730Y-71468872D01*
X123282007Y-71453500D01*
X123478993Y-71453500D01*
X123556270Y-71468872D01*
X123556270Y-71468872D01*
G37*
G36*
X183309770Y-47592872D02*
X183425689Y-47615929D01*
X183607678Y-47691311D01*
X183771463Y-47800749D01*
X183910751Y-47940037D01*
X184020189Y-48103822D01*
X184095571Y-48285811D01*
X184134000Y-48479009D01*
X184134000Y-48675991D01*
X184095571Y-48869189D01*
X184020189Y-49051178D01*
X183910751Y-49214963D01*
X183771463Y-49354251D01*
X183607678Y-49463689D01*
X183425689Y-49539071D01*
X183309770Y-49562128D01*
X183232493Y-49577500D01*
X183035507Y-49577500D01*
X182958230Y-49562128D01*
X182842311Y-49539071D01*
X182660322Y-49463689D01*
X182496537Y-49354251D01*
X182357249Y-49214963D01*
X182247811Y-49051178D01*
X182172429Y-48869189D01*
X182134000Y-48675991D01*
X182134000Y-48479009D01*
X182172429Y-48285811D01*
X182247811Y-48103822D01*
X182357249Y-47940037D01*
X182496537Y-47800749D01*
X182660322Y-47691311D01*
X182842311Y-47615929D01*
X182958230Y-47592872D01*
X183035507Y-47577500D01*
X183232493Y-47577500D01*
X183309770Y-47592872D01*
X183309770Y-47592872D01*
G37*
G36*
X112126270Y-47592872D02*
X112242189Y-47615929D01*
X112424178Y-47691311D01*
X112587963Y-47800749D01*
X112727251Y-47940037D01*
X112836689Y-48103822D01*
X112912071Y-48285811D01*
X112950500Y-48479009D01*
X112950500Y-48675991D01*
X112912071Y-48869189D01*
X112836689Y-49051178D01*
X112727251Y-49214963D01*
X112587963Y-49354251D01*
X112424178Y-49463689D01*
X112242189Y-49539071D01*
X112126270Y-49562128D01*
X112048993Y-49577500D01*
X111852007Y-49577500D01*
X111774730Y-49562128D01*
X111658811Y-49539071D01*
X111476822Y-49463689D01*
X111313037Y-49354251D01*
X111173749Y-49214963D01*
X111064311Y-49051178D01*
X110988929Y-48869189D01*
X110950500Y-48675991D01*
X110950500Y-48479009D01*
X110988929Y-48285811D01*
X111064311Y-48103822D01*
X111173749Y-47940037D01*
X111313037Y-47800749D01*
X111476822Y-47691311D01*
X111658811Y-47615929D01*
X111774730Y-47592872D01*
X111852007Y-47577500D01*
X112048993Y-47577500D01*
X112126270Y-47592872D01*
X112126270Y-47592872D01*
G37*
G36*
X136827770Y-47529372D02*
X136943689Y-47552429D01*
X137125678Y-47627811D01*
X137289463Y-47737249D01*
X137428751Y-47876537D01*
X137538189Y-48040322D01*
X137613571Y-48222311D01*
X137652000Y-48415509D01*
X137652000Y-48612491D01*
X137613571Y-48805689D01*
X137538189Y-48987678D01*
X137428751Y-49151463D01*
X137289463Y-49290751D01*
X137125678Y-49400189D01*
X136943689Y-49475571D01*
X136827770Y-49498628D01*
X136750493Y-49514000D01*
X136553507Y-49514000D01*
X136476230Y-49498628D01*
X136360311Y-49475571D01*
X136178322Y-49400189D01*
X136014537Y-49290751D01*
X135875249Y-49151463D01*
X135765811Y-48987678D01*
X135690429Y-48805689D01*
X135652000Y-48612491D01*
X135652000Y-48415509D01*
X135690429Y-48222311D01*
X135765811Y-48040322D01*
X135875249Y-47876537D01*
X136014537Y-47737249D01*
X136178322Y-47627811D01*
X136360311Y-47552429D01*
X136476230Y-47529372D01*
X136553507Y-47514000D01*
X136750493Y-47514000D01*
X136827770Y-47529372D01*
X136827770Y-47529372D01*
G37*
G36*
X139367770Y-47529372D02*
X139483689Y-47552429D01*
X139665678Y-47627811D01*
X139829463Y-47737249D01*
X139968751Y-47876537D01*
X140078189Y-48040322D01*
X140153571Y-48222311D01*
X140192000Y-48415509D01*
X140192000Y-48612491D01*
X140153571Y-48805689D01*
X140078189Y-48987678D01*
X139968751Y-49151463D01*
X139829463Y-49290751D01*
X139665678Y-49400189D01*
X139483689Y-49475571D01*
X139367770Y-49498628D01*
X139290493Y-49514000D01*
X139093507Y-49514000D01*
X139016230Y-49498628D01*
X138900311Y-49475571D01*
X138718322Y-49400189D01*
X138554537Y-49290751D01*
X138415249Y-49151463D01*
X138305811Y-48987678D01*
X138230429Y-48805689D01*
X138192000Y-48612491D01*
X138192000Y-48415509D01*
X138230429Y-48222311D01*
X138305811Y-48040322D01*
X138415249Y-47876537D01*
X138554537Y-47737249D01*
X138718322Y-47627811D01*
X138900311Y-47552429D01*
X139016230Y-47529372D01*
X139093507Y-47514000D01*
X139290493Y-47514000D01*
X139367770Y-47529372D01*
X139367770Y-47529372D01*
G37*
G36*
X141907770Y-47529372D02*
X142023689Y-47552429D01*
X142205678Y-47627811D01*
X142369463Y-47737249D01*
X142508751Y-47876537D01*
X142618189Y-48040322D01*
X142693571Y-48222311D01*
X142732000Y-48415509D01*
X142732000Y-48612491D01*
X142693571Y-48805689D01*
X142618189Y-48987678D01*
X142508751Y-49151463D01*
X142369463Y-49290751D01*
X142205678Y-49400189D01*
X142023689Y-49475571D01*
X141907770Y-49498628D01*
X141830493Y-49514000D01*
X141633507Y-49514000D01*
X141556230Y-49498628D01*
X141440311Y-49475571D01*
X141258322Y-49400189D01*
X141094537Y-49290751D01*
X140955249Y-49151463D01*
X140845811Y-48987678D01*
X140770429Y-48805689D01*
X140732000Y-48612491D01*
X140732000Y-48415509D01*
X140770429Y-48222311D01*
X140845811Y-48040322D01*
X140955249Y-47876537D01*
X141094537Y-47737249D01*
X141258322Y-47627811D01*
X141440311Y-47552429D01*
X141556230Y-47529372D01*
X141633507Y-47514000D01*
X141830493Y-47514000D01*
X141907770Y-47529372D01*
X141907770Y-47529372D01*
G37*
M02*
