G04 #@! TF.GenerationSoftware,KiCad,Pcbnew,5.0.2+dfsg1-1~bpo9+1*
G04 #@! TF.CreationDate,2019-03-08T11:12:02+00:00*
G04 #@! TF.ProjectId,thin_ZBS_screen,7468696e-5f5a-4425-935f-73637265656e,rev?*
G04 #@! TF.SameCoordinates,Original*
G04 #@! TF.FileFunction,Copper,L2,Bot*
G04 #@! TF.FilePolarity,Positive*
%FSLAX46Y46*%
G04 Gerber Fmt 4.6, Leading zero omitted, Abs format (unit mm)*
G04 Created by KiCad (PCBNEW 5.0.2+dfsg1-1~bpo9+1) date Fri 08 Mar 2019 11:12:02 GMT*
%MOMM*%
%LPD*%
G01*
G04 APERTURE LIST*
G04 #@! TA.AperFunction,ComponentPad*
%ADD10C,1.600000*%
G04 #@! TD*
G04 #@! TA.AperFunction,SMDPad,CuDef*
%ADD11R,1.900000X1.500000*%
G04 #@! TD*
G04 #@! TA.AperFunction,ComponentPad*
%ADD12C,1.450000*%
G04 #@! TD*
G04 #@! TA.AperFunction,SMDPad,CuDef*
%ADD13R,1.350000X0.400000*%
G04 #@! TD*
G04 #@! TA.AperFunction,ComponentPad*
%ADD14O,1.900000X1.200000*%
G04 #@! TD*
G04 #@! TA.AperFunction,SMDPad,CuDef*
%ADD15R,1.900000X1.200000*%
G04 #@! TD*
G04 #@! TA.AperFunction,SMDPad,CuDef*
%ADD16R,1.524000X1.524000*%
G04 #@! TD*
G04 #@! TA.AperFunction,ComponentPad*
%ADD17C,3.600000*%
G04 #@! TD*
G04 #@! TA.AperFunction,ViaPad*
%ADD18C,0.600000*%
G04 #@! TD*
G04 #@! TA.AperFunction,Conductor*
%ADD19C,0.250000*%
G04 #@! TD*
G04 #@! TA.AperFunction,Conductor*
%ADD20C,0.500000*%
G04 #@! TD*
G04 #@! TA.AperFunction,Conductor*
%ADD21C,0.580000*%
G04 #@! TD*
G04 APERTURE END LIST*
D10*
G04 #@! TO.P,U1,19*
G04 #@! TO.N,Net-(U1-Pad19)*
X154940000Y-97028000D03*
G04 #@! TO.P,U1,20*
G04 #@! TO.N,Net-(U1-Pad20)*
X154940000Y-99568000D03*
G04 #@! TO.P,U1,17*
G04 #@! TO.N,Net-(U1-Pad17)*
X157480000Y-97028000D03*
G04 #@! TO.P,U1,15*
G04 #@! TO.N,Net-(U1-Pad15)*
X160020000Y-97028000D03*
G04 #@! TO.P,U1,13*
G04 #@! TO.N,Net-(U1-Pad13)*
X162560000Y-97028000D03*
G04 #@! TO.P,U1,11*
G04 #@! TO.N,Net-(U1-Pad11)*
X165100000Y-97028000D03*
G04 #@! TO.P,U1,9*
G04 #@! TO.N,Net-(U1-Pad9)*
X167640000Y-97028000D03*
G04 #@! TO.P,U1,7*
G04 #@! TO.N,Net-(U1-Pad7)*
X170180000Y-97028000D03*
G04 #@! TO.P,U1,5*
G04 #@! TO.N,Net-(U1-Pad5)*
X172720000Y-97028000D03*
G04 #@! TO.P,U1,3*
G04 #@! TO.N,Net-(U1-Pad3)*
X175260000Y-97028000D03*
G04 #@! TO.P,U1,1*
G04 #@! TO.N,Net-(U1-Pad1)*
X177800000Y-97028000D03*
G04 #@! TO.P,U1,18*
G04 #@! TO.N,Net-(U1-Pad18)*
X157480000Y-99568000D03*
G04 #@! TO.P,U1,16*
G04 #@! TO.N,Net-(U1-Pad16)*
X160020000Y-99568000D03*
G04 #@! TO.P,U1,14*
G04 #@! TO.N,Net-(U1-Pad14)*
X162560000Y-99568000D03*
G04 #@! TO.P,U1,12*
G04 #@! TO.N,Net-(U1-Pad12)*
X165100000Y-99568000D03*
G04 #@! TO.P,U1,10*
G04 #@! TO.N,Net-(U1-Pad10)*
X167640000Y-99568000D03*
G04 #@! TO.P,U1,8*
G04 #@! TO.N,Net-(U1-Pad8)*
X170180000Y-99568000D03*
G04 #@! TO.P,U1,6*
G04 #@! TO.N,Net-(SW1-Pad2)*
X172720000Y-99568000D03*
G04 #@! TO.P,U1,4*
G04 #@! TO.N,Net-(SW2-Pad1)*
X175260000Y-99568000D03*
G04 #@! TO.P,U1,2*
X177800000Y-99568000D03*
G04 #@! TO.P,U1,21*
G04 #@! TO.N,Net-(U1-Pad21)*
X152400000Y-97028000D03*
G04 #@! TO.P,U1,22*
G04 #@! TO.N,Net-(U1-Pad22)*
X152400000Y-99568000D03*
G04 #@! TO.P,U1,23*
G04 #@! TO.N,Net-(U1-Pad23)*
X149860000Y-97028000D03*
G04 #@! TO.P,U1,24*
G04 #@! TO.N,Net-(U1-Pad24)*
X149860000Y-99568000D03*
G04 #@! TO.P,U1,25*
G04 #@! TO.N,Net-(U1-Pad25)*
X147320000Y-97028000D03*
G04 #@! TO.P,U1,26*
G04 #@! TO.N,Net-(U1-Pad26)*
X147320000Y-99568000D03*
G04 #@! TD*
D11*
G04 #@! TO.P,J1,6*
G04 #@! TO.N,Net-(J1-Pad5)*
X111284500Y-80089500D03*
D12*
X113984500Y-83589500D03*
D13*
G04 #@! TO.P,J1,2*
G04 #@! TO.N,Net-(J1-Pad2)*
X113984500Y-81739500D03*
G04 #@! TO.P,J1,1*
G04 #@! TO.N,Net-(J1-Pad1)*
X113984500Y-82389500D03*
G04 #@! TO.P,J1,5*
G04 #@! TO.N,Net-(J1-Pad5)*
X113984500Y-79789500D03*
G04 #@! TO.P,J1,4*
G04 #@! TO.N,Net-(J1-Pad4)*
X113984500Y-80439500D03*
G04 #@! TO.P,J1,3*
G04 #@! TO.N,Net-(J1-Pad3)*
X113984500Y-81089500D03*
D12*
G04 #@! TO.P,J1,6*
G04 #@! TO.N,Net-(J1-Pad5)*
X113984500Y-78589500D03*
D11*
X111284500Y-82089500D03*
D14*
X111284500Y-84589500D03*
X111284500Y-77589500D03*
D15*
X111284500Y-78189500D03*
X111284500Y-83989500D03*
G04 #@! TD*
D10*
G04 #@! TO.P,U3,1*
G04 #@! TO.N,Net-(J1-Pad1)*
X131000500Y-72453500D03*
G04 #@! TO.P,U3,2*
G04 #@! TO.N,Net-(J1-Pad5)*
X128460500Y-72453500D03*
G04 #@! TO.P,U3,3*
G04 #@! TO.N,Net-(U3-Pad3)*
X125920500Y-72453500D03*
G04 #@! TO.P,U3,4*
G04 #@! TO.N,Net-(U3-Pad4)*
X123380500Y-72453500D03*
G04 #@! TO.P,U3,5*
G04 #@! TO.N,Net-(SW1-Pad2)*
X120840500Y-72453500D03*
G04 #@! TO.P,U3,6*
G04 #@! TO.N,Net-(SW2-Pad2)*
X118300500Y-72453500D03*
G04 #@! TO.P,U3,7*
G04 #@! TO.N,Net-(SW1-Pad1)*
X115760500Y-72453500D03*
G04 #@! TD*
G04 #@! TO.P,U4,1*
G04 #@! TO.N,Net-(U3-Pad4)*
X126428500Y-89725500D03*
G04 #@! TO.P,U4,2*
G04 #@! TO.N,Net-(U3-Pad3)*
X128460500Y-89725500D03*
G04 #@! TD*
G04 #@! TO.P,SW2,1*
G04 #@! TO.N,Net-(SW2-Pad1)*
X141732000Y-48514000D03*
G04 #@! TO.P,SW2,2*
G04 #@! TO.N,Net-(SW2-Pad2)*
X139192000Y-48514000D03*
G04 #@! TO.P,SW2,3*
G04 #@! TO.N,Net-(SW2-Pad3)*
X136652000Y-48514000D03*
G04 #@! TD*
D16*
G04 #@! TO.P,SW1,1*
G04 #@! TO.N,Net-(SW1-Pad1)*
X146113500Y-48577500D03*
G04 #@! TO.P,SW1,2*
G04 #@! TO.N,Net-(SW1-Pad2)*
X153733500Y-48577500D03*
G04 #@! TD*
D17*
G04 #@! TO.P,U2,0*
G04 #@! TO.N,N/C*
X177673000Y-104902000D03*
X119507000Y-104902000D03*
D10*
G04 #@! TO.P,U2,1*
G04 #@! TO.N,Net-(U2-Pad1)*
X172720000Y-103632000D03*
G04 #@! TO.P,U2,2*
G04 #@! TO.N,Net-(SW2-Pad1)*
X172720000Y-106172000D03*
G04 #@! TO.P,U2,3*
G04 #@! TO.N,Net-(U2-Pad3)*
X170180000Y-103632000D03*
G04 #@! TO.P,U2,4*
G04 #@! TO.N,Net-(SW2-Pad1)*
X170180000Y-106172000D03*
G04 #@! TO.P,U2,5*
G04 #@! TO.N,Net-(U2-Pad5)*
X167640000Y-103632000D03*
G04 #@! TO.P,U2,6*
G04 #@! TO.N,Net-(SW1-Pad2)*
X167640000Y-106172000D03*
G04 #@! TO.P,U2,7*
G04 #@! TO.N,Net-(U2-Pad7)*
X165100000Y-103632000D03*
G04 #@! TO.P,U2,8*
G04 #@! TO.N,Net-(U2-Pad8)*
X165100000Y-106172000D03*
G04 #@! TO.P,U2,9*
G04 #@! TO.N,Net-(U2-Pad9)*
X162560000Y-103632000D03*
G04 #@! TO.P,U2,10*
G04 #@! TO.N,Net-(U2-Pad10)*
X162560000Y-106172000D03*
G04 #@! TO.P,U2,11*
G04 #@! TO.N,Net-(U1-Pad11)*
X160020000Y-103632000D03*
G04 #@! TO.P,U2,12*
G04 #@! TO.N,Net-(U2-Pad12)*
X160020000Y-106172000D03*
G04 #@! TO.P,U2,13*
G04 #@! TO.N,Net-(U2-Pad13)*
X157480000Y-103632000D03*
G04 #@! TO.P,U2,14*
G04 #@! TO.N,Net-(U2-Pad14)*
X157480000Y-106172000D03*
G04 #@! TO.P,U2,15*
G04 #@! TO.N,Net-(U2-Pad15)*
X154940000Y-103632000D03*
G04 #@! TO.P,U2,16*
G04 #@! TO.N,Net-(U2-Pad16)*
X154940000Y-106172000D03*
G04 #@! TO.P,U2,17*
G04 #@! TO.N,Net-(U2-Pad17)*
X152400000Y-103632000D03*
G04 #@! TO.P,U2,18*
G04 #@! TO.N,Net-(U1-Pad18)*
X152400000Y-106172000D03*
G04 #@! TO.P,U2,19*
G04 #@! TO.N,Net-(U1-Pad19)*
X149860000Y-103632000D03*
G04 #@! TO.P,U2,20*
G04 #@! TO.N,Net-(U2-Pad20)*
X149860000Y-106172000D03*
G04 #@! TO.P,U2,21*
G04 #@! TO.N,Net-(U1-Pad21)*
X147320000Y-103632000D03*
G04 #@! TO.P,U2,22*
G04 #@! TO.N,Net-(U1-Pad22)*
X147320000Y-106172000D03*
G04 #@! TO.P,U2,23*
G04 #@! TO.N,Net-(U1-Pad23)*
X144780000Y-103632000D03*
G04 #@! TO.P,U2,24*
G04 #@! TO.N,Net-(U1-Pad24)*
X144780000Y-106172000D03*
G04 #@! TO.P,U2,25*
G04 #@! TO.N,Net-(U2-Pad25)*
X142240000Y-103632000D03*
G04 #@! TO.P,U2,26*
G04 #@! TO.N,Net-(U1-Pad26)*
X142240000Y-106172000D03*
G04 #@! TO.P,U2,27*
G04 #@! TO.N,Net-(U2-Pad27)*
X139700000Y-103632000D03*
G04 #@! TO.P,U2,28*
G04 #@! TO.N,Net-(U2-Pad28)*
X139700000Y-106172000D03*
G04 #@! TO.P,U2,29*
G04 #@! TO.N,Net-(U2-Pad29)*
X137160000Y-103632000D03*
G04 #@! TO.P,U2,30*
G04 #@! TO.N,Net-(U2-Pad30)*
X137160000Y-106172000D03*
G04 #@! TO.P,U2,31*
G04 #@! TO.N,Net-(U2-Pad31)*
X134620000Y-103632000D03*
G04 #@! TO.P,U2,32*
G04 #@! TO.N,Net-(U2-Pad32)*
X134620000Y-106172000D03*
G04 #@! TO.P,U2,33*
G04 #@! TO.N,Net-(U2-Pad33)*
X132080000Y-103632000D03*
G04 #@! TO.P,U2,34*
G04 #@! TO.N,Net-(U2-Pad34)*
X132080000Y-106172000D03*
G04 #@! TO.P,U2,35*
G04 #@! TO.N,Net-(U2-Pad35)*
X129540000Y-103632000D03*
G04 #@! TO.P,U2,36*
G04 #@! TO.N,Net-(U2-Pad36)*
X129540000Y-106172000D03*
G04 #@! TO.P,U2,37*
G04 #@! TO.N,Net-(U2-Pad37)*
X127000000Y-103632000D03*
G04 #@! TO.P,U2,38*
G04 #@! TO.N,Net-(U2-Pad38)*
X127000000Y-106172000D03*
G04 #@! TO.P,U2,39*
G04 #@! TO.N,Net-(U2-Pad39)*
X124460000Y-103632000D03*
G04 #@! TO.P,U2,40*
G04 #@! TO.N,Net-(U2-Pad40)*
X124460000Y-106172000D03*
G04 #@! TD*
G04 #@! TO.P,U5,1*
G04 #@! TO.N,Net-(U5-Pad1)*
X111950500Y-48577500D03*
G04 #@! TD*
G04 #@! TO.P,U6,1*
G04 #@! TO.N,Net-(U6-Pad1)*
X183134000Y-48577500D03*
G04 #@! TD*
D18*
G04 #@! TO.N,Net-(J1-Pad5)*
X119062500Y-89027000D03*
G04 #@! TO.N,Net-(J1-Pad1)*
X117475000Y-82359500D03*
G04 #@! TD*
D19*
G04 #@! TO.N,Net-(U1-Pad26)*
X146520001Y-100367999D02*
X146520001Y-101764999D01*
X147320000Y-99568000D02*
X146520001Y-100367999D01*
X146520001Y-101764999D02*
X146050000Y-102235000D01*
X146050000Y-102235000D02*
X146050000Y-104394000D01*
X146050000Y-104394000D02*
X145491200Y-104952800D01*
X143459200Y-104952800D02*
X142240000Y-106172000D01*
X145491200Y-104952800D02*
X143459200Y-104952800D01*
D20*
G04 #@! TO.N,Net-(J1-Pad5)*
X119062500Y-89027000D02*
X119062500Y-81343500D01*
X117508500Y-79789500D02*
X113984500Y-79789500D01*
X119062500Y-81343500D02*
X117508500Y-79789500D01*
X113984500Y-79789500D02*
X113984500Y-78589500D01*
X112884500Y-79789500D02*
X111284500Y-78189500D01*
X113984500Y-79789500D02*
X112884500Y-79789500D01*
X111284500Y-78189500D02*
X111284500Y-80089500D01*
X111284500Y-80089500D02*
X111284500Y-82089500D01*
X111284500Y-82089500D02*
X111284500Y-83989500D01*
X113584500Y-83989500D02*
X113984500Y-83589500D01*
X111284500Y-83989500D02*
X113584500Y-83989500D01*
G04 #@! TO.N,Net-(J1-Pad1)*
X117445000Y-82389500D02*
X113984500Y-82389500D01*
X117475000Y-82359500D02*
X117445000Y-82389500D01*
D21*
G04 #@! TO.N,Net-(SW1-Pad2)*
X168439999Y-106971999D02*
X168439999Y-107175199D01*
X167640000Y-106172000D02*
X168439999Y-106971999D01*
X168439999Y-107175199D02*
X169138600Y-107873800D01*
X169138600Y-107873800D02*
X173812200Y-107873800D01*
X173812200Y-107873800D02*
X174752000Y-106934000D01*
X174752000Y-101600000D02*
X172720000Y-99568000D01*
D19*
X153733500Y-49589500D02*
X135378000Y-67945000D01*
X153733500Y-48577500D02*
X153733500Y-49589500D01*
X125349000Y-67945000D02*
X120840500Y-72453500D01*
X135378000Y-67945000D02*
X125349000Y-67945000D01*
D20*
X120840500Y-73584870D02*
X138759130Y-91503500D01*
X120840500Y-72453500D02*
X120840500Y-73584870D01*
X138759130Y-91503500D02*
X181292500Y-91503500D01*
X181292500Y-91503500D02*
X184404000Y-94615000D01*
X184404000Y-94615000D02*
X184404000Y-98742500D01*
X181229000Y-101917500D02*
X174752000Y-101917500D01*
X184404000Y-98742500D02*
X181229000Y-101917500D01*
D21*
X174752000Y-101917500D02*
X174752000Y-101600000D01*
X174752000Y-106934000D02*
X174752000Y-101917500D01*
D19*
G04 #@! TO.N,Net-(SW1-Pad1)*
X123126500Y-65087500D02*
X132461000Y-65087500D01*
X115760500Y-72453500D02*
X123126500Y-65087500D01*
X146113500Y-51435000D02*
X146113500Y-48577500D01*
X132461000Y-65087500D02*
X146113500Y-51435000D01*
G04 #@! TD*
M02*
