M48
METRIC,TZ
T1C0.400
T2C0.600
T3C0.850
T4C1.000
T5C3.000
%
G90
G05
T1
X117475Y-82360
X119063Y-89027
T3
X113985Y-78590
X113985Y-83590
T4
X147320Y-97028
X147320Y-99568
X149860Y-97028
X149860Y-99568
X152400Y-97028
X152400Y-99568
X154940Y-97028
X154940Y-99568
X157480Y-97028
X157480Y-99568
X160020Y-97028
X160020Y-99568
X162560Y-97028
X162560Y-99568
X165100Y-97028
X165100Y-99568
X167640Y-97028
X167640Y-99568
X170180Y-97028
X170180Y-99568
X172720Y-97028
X172720Y-99568
X175260Y-97028
X175260Y-99568
X177800Y-97028
X177800Y-99568
X124460Y-103632
X124460Y-106172
X127000Y-103632
X127000Y-106172
X129540Y-103632
X129540Y-106172
X132080Y-103632
X132080Y-106172
X134620Y-103632
X134620Y-106172
X137160Y-103632
X137160Y-106172
X139700Y-103632
X139700Y-106172
X142240Y-103632
X142240Y-106172
X144780Y-103632
X144780Y-106172
X147320Y-103632
X147320Y-106172
X149860Y-103632
X149860Y-106172
X152400Y-103632
X152400Y-106172
X154940Y-103632
X154940Y-106172
X157480Y-103632
X157480Y-106172
X160020Y-103632
X160020Y-106172
X162560Y-103632
X162560Y-106172
X165100Y-103632
X165100Y-106172
X167640Y-103632
X167640Y-106172
X170180Y-103632
X170180Y-106172
X172720Y-103632
X172720Y-106172
X126429Y-89726
X128461Y-89726
X183134Y-48578
X111951Y-48578
X136652Y-48514
X139192Y-48514
X141732Y-48514
X115761Y-72453
X118301Y-72453
X120841Y-72453
X123381Y-72453
X125921Y-72453
X128461Y-72453
X131001Y-72453
T5
X119507Y-104902
X177673Y-104902
T2
X110935Y-77590G85X111634Y-77590
G05
X111634Y-84590G85X110935Y-84590
G05
T0
M30
